<?xml version="1.0" standalone="no"?>
<!DOCTYPE svg PUBLIC "-//W3C//DTD SVG 1.1//EN" "http://www.w3.org/Graphics/SVG/1.1/DTD/svg11.dtd" >
<svg xmlns="http://www.w3.org/2000/svg">
<metadata></metadata>
<defs>
<font id="introthin_italic" horiz-adv-x="1456" >
<font-face units-per-em="2048" ascent="1536" descent="-512" />
<missing-glyph horiz-adv-x="559" />
<glyph horiz-adv-x="0" />
<glyph horiz-adv-x="682" />
<glyph unicode=" "  horiz-adv-x="559" />
<glyph unicode="&#x09;" horiz-adv-x="559" />
<glyph unicode="&#xa0;" horiz-adv-x="559" />
<glyph unicode="!" horiz-adv-x="432" d="M57 2q0 37 41 37q29 0 29 -25q0 -17 -12.5 -28t-30.5 -11q-27 0 -27 27zM121 227l256 1205h37l-256 -1205h-37z" />
<glyph unicode="&#x22;" horiz-adv-x="575" d="M256 1018l88 416h35l-92 -416h-31zM467 1018l88 416h35l-92 -416h-31z" />
<glyph unicode="#" horiz-adv-x="1374" d="M76 451l8 34h276l150 418h-277l9 35h282l176 494h35l-176 -494h512l178 494h37l-178 -494h240l-9 -35h-245l-150 -418h246l-8 -34h-252l-160 -451h-37l162 451h-512l-164 -451h-37l164 451h-270zM395 485h514l148 418h-510z" />
<glyph unicode="$" horiz-adv-x="1310" d="M55 358h35q-8 -70 13.5 -128t62.5 -96.5t99.5 -65.5t122 -39.5t132.5 -14.5l150 707q-57 8 -94.5 15t-87.5 19t-82.5 25.5t-67.5 35.5t-55.5 48t-33.5 62.5t-13 81.5q0 89 37 163.5t97 124.5t138 85.5t158 52t159 18.5l29 135h29l-29 -135q69 -2 132.5 -15t121.5 -40.5 t99 -67.5t61 -100t10 -133h-35q10 66 -9.5 120.5t-59 90t-94.5 60.5t-113.5 36.5t-120.5 13.5l-141 -663q202 -30 282 -58q158 -56 182 -178q11 -59 -6 -137q-21 -100 -87.5 -178.5t-157 -124t-186.5 -70t-191 -26.5l-29 -136h-29l29 136q-73 0 -141.5 13.5t-130.5 43.5 t-106.5 73t-66.5 106.5t-12 139.5zM272 1020q0 -49 16.5 -88.5t50 -66t67.5 -44.5t88 -30.5t90 -19t94 -13.5l139 659q-70 -2 -142.5 -17t-145.5 -47t-129.5 -77t-92 -111.5t-35.5 -144.5zM549 14q87 2 176 24.5t173 64.5t146 114.5t82 163.5q20 94 -5 157t-99.5 98 t-140.5 50t-183 31z" />
<glyph unicode="%" horiz-adv-x="1558" d="M193 1067q0 90 35 164.5t91.5 120.5t124 71t136.5 25q106 0 178.5 -65.5t72.5 -184.5q0 -72 -23 -135t-62 -107.5t-89.5 -76t-105 -47t-109.5 -15.5q-105 0 -177 66t-72 184zM229 1075q0 -107 63 -164t159 -57q61 0 121 22t110 62.5t81.5 106.5t31.5 145q0 105 -64.5 164 t-159.5 59q-60 0 -119.5 -22.5t-109.5 -63t-81.5 -107t-31.5 -145.5zM283 -2l1003 1432h41l-1001 -1432h-43zM780 229q0 89 34.5 163.5t90.5 120.5t123.5 71.5t136.5 25.5q108 0 182 -65.5t74 -186.5q0 -88 -34.5 -161.5t-90.5 -119.5t-123 -71.5t-135 -25.5q-110 0 -184 64 t-74 185zM819 238q0 -107 64 -164.5t161 -57.5q60 0 119.5 22.5t108.5 63.5t79.5 106.5t30.5 143.5q0 104 -64.5 162.5t-160.5 58.5q-61 0 -120 -22t-108 -62.5t-79.5 -106t-30.5 -144.5z" />
<glyph unicode="&#x26;" horiz-adv-x="1339" d="M74 346q22 383 444 463q-92 24 -148.5 87t-56.5 157q0 80 31 147t82 112.5t117.5 77t135.5 46t138 14.5q81 0 147.5 -18t117.5 -55t75.5 -99.5t16.5 -144.5h-33q8 75 -15 131.5t-70.5 89t-109.5 48t-137 15.5q-78 0 -155.5 -21.5t-147 -62.5t-113 -112.5t-43.5 -161.5 q0 -105 78.5 -168t196.5 -68q27 -2 104 -2l-8 -30q-61 0 -107 -3q-103 -9 -188 -37t-156 -79.5t-113 -135t-48 -194.5q-7 -149 101.5 -238.5t268.5 -89.5q216 0 358 118.5t189 336.5l72 342h202l-6 -29h-166l-67 -313q-51 -233 -203 -360t-381 -127q-179 0 -294.5 98.5 t-108.5 265.5z" />
<glyph unicode="'" horiz-adv-x="362" d="M256 1018l88 416h35l-94 -416h-29z" />
<glyph unicode="(" horiz-adv-x="524" d="M71.5 214q0.5 174 39 365t107 364.5t174.5 329.5t235 259l22 -29q-123 -97 -226 -248t-170 -320t-105 -356t-40 -357.5t34 -323t110 -254.5l-31 -21q-75 105 -112.5 261t-37 330z" />
<glyph unicode=")" horiz-adv-x="520" d="M-133 -350q115 101 216 253.5t172.5 323t114.5 357.5t49.5 356t-31 319.5t-118.5 247.5l27 25q84 -100 123.5 -254t34.5 -327.5t-48 -365t-116 -366.5t-177.5 -332.5t-224.5 -263.5z" />
<glyph unicode="*" horiz-adv-x="835" d="M266 1223l17 30l241 -88l60 273h32l-59 -271l268 97l4 -31l-268 -96l129 -228l-31 -20l-129 227l-225 -227l-22 20l225 226z" />
<glyph unicode="+" horiz-adv-x="970" d="M172 733l6 31h324l69 326h33l-69 -326h323l-6 -31h-324l-67 -319h-33l68 319h-324z" />
<glyph unicode="," horiz-adv-x="342" d="M-31 -160l72 144q-18 6 -18 24q0 39 38 39q12 0 21.5 -7.5t9.5 -19.5q0 -8 -3 -13l-3 -5l-84 -162h-33z" />
<glyph unicode="-" horiz-adv-x="923" d="M168 666l8 34h617l-9 -34h-616z" />
<glyph unicode="." horiz-adv-x="389" d="M39 25q0 20 13.5 32.5t33.5 12.5q35 0 35 -31q0 -18 -15 -31.5t-34 -13.5q-16 0 -24.5 9t-8.5 22z" />
<glyph unicode="/" horiz-adv-x="925" d="M-27 2l998 1432h41l-1000 -1432h-39z" />
<glyph unicode="0" horiz-adv-x="1374" d="M137 473l103 483q49 224 225.5 359t404.5 135q224 0 345 -136t73 -358l-102 -483q-53 -235 -223.5 -362t-403.5 -127q-229 0 -349.5 132.5t-72.5 356.5zM174 473q-44 -211 64 -334t325 -123q136 0 258.5 54t211.5 159.5t118 243.5l102 483q44 211 -65 335t-326 124 q-139 0 -261 -54.5t-209 -160t-116 -244.5z" />
<glyph unicode="1" horiz-adv-x="827" d="M-23 0l7 33h319l293 1370h-283l6 31h318l-299 -1401h321l-6 -33h-676z" />
<glyph unicode="2" horiz-adv-x="1120" d="M-14 0l2 8l817 752q233 220 233 409q0 112 -78 179t-233 67q-182 -1 -285 -75.5t-157 -241.5h-35q52 177 166 264t313 88q170 0 257 -77t87 -202q0 -212 -242 -434l-763 -702h839l-8 -35h-913z" />
<glyph unicode="3" horiz-adv-x="1191" d="M55 352h35q-7 -163 86 -249.5t262 -86.5q111 0 211.5 34t176.5 95.5t120.5 153.5t44.5 201q0 85 -38 157t-101.5 114t-147 54.5t-174.5 -22.5l7 31l632 567h-831l8 33h901l-2 -11l-637 -571q85 18 163 -3t133.5 -70t88.5 -121.5t33 -153.5q0 -121 -47 -220.5t-128 -164.5 t-188.5 -100t-228.5 -35q-187 0 -289 94.5t-90 273.5z" />
<glyph unicode="4" horiz-adv-x="1175" d="M31 352l4 21l1052 1061h19l-221 -1047h162l-9 -35h-161l-76 -352h-35l76 352h-811zM98 387h752l94 449l109 512h-2z" />
<glyph unicode="5" horiz-adv-x="1198" d="M72 332h34q4 -150 104 -233t259 -83q146 0 272.5 63t205.5 182.5t79 270.5q0 87 -32.5 154t-91 108t-137 62t-173.5 21q-158 0 -365 -68l131 625h811l-6 -35h-774l-115 -539q161 51 324 51q137 0 240 -39t164 -125t61 -210q0 -162 -84 -290.5t-220.5 -196.5t-295.5 -68 q-174 0 -282.5 92.5t-108.5 257.5z" />
<glyph unicode="6" horiz-adv-x="1187" d="M49 356q0 38 4.5 70t18.5 78.5t47 100t84 110.5l649 721h45l-547 -617q153 78 307 78q182 0 302 -101.5t120 -273.5q0 -121 -53 -224t-140 -170.5t-196.5 -105.5t-224.5 -38q-182 0 -299 99.5t-117 272.5zM82 365q-4 -161 105 -254t276 -93q86 0 169 21.5t156 64.5 t129.5 102t89.5 139t35 171q4 161 -104.5 252.5t-280.5 91.5q-108 0 -209.5 -34.5t-182.5 -96.5t-131 -157t-52 -207z" />
<glyph unicode="7" horiz-adv-x="1021" d="M94 0l993 1399h-837l8 35h893l-2 -7l-1014 -1427h-41z" />
<glyph unicode="8" horiz-adv-x="1234" d="M63 324q0 95 37.5 177t101.5 139t142.5 95.5t167.5 57.5q-91 28 -146 94.5t-55 165.5q0 96 44 174t115.5 125.5t157 72.5t173.5 25q93 0 171 -30t129.5 -95.5t51.5 -155.5q0 -73 -28.5 -136.5t-77.5 -109.5t-109.5 -78.5t-130.5 -51.5q126 -31 205.5 -115t79.5 -213 q0 -115 -54.5 -209t-142.5 -152t-193 -89t-213 -31q-115 0 -209.5 36.5t-155.5 115.5t-61 188zM100 332q-4 -150 108 -232t277 -82q77 0 155.5 16.5t153 52.5t132 86.5t93.5 124t38 159.5q2 78 -29.5 140t-87.5 99.5t-126.5 57.5t-149.5 20q-99 0 -196 -28.5t-179.5 -81.5 t-134.5 -139.5t-54 -192.5zM346 1061q-4 -121 87 -186.5t222 -65.5q79 0 157.5 23t146 65t110.5 111.5t45 154.5q3 82 -42 141t-115.5 85t-155.5 26q-62 0 -124.5 -13.5t-121.5 -42.5t-104.5 -69.5t-74 -100t-30.5 -128.5z" />
<glyph unicode="9" horiz-adv-x="1189" d="M166 924q0 98 35 183.5t95 147.5t138.5 106.5t168 66.5t181.5 22q182 0 299 -95.5t117 -267.5q0 -88 -34 -173.5t-122 -184.5l-651 -729h-43l555 629q-154 -80 -315 -80q-186 0 -305 101t-119 274zM203 930q-4 -160 106 -252t279 -92q108 0 209.5 34t182.5 96t131 157 t52 208q4 160 -102 247t-277 87q-108 0 -210.5 -32.5t-184.5 -92.5t-133 -153.5t-53 -206.5z" />
<glyph unicode=":" horiz-adv-x="385" d="M35 25q0 20 13.5 32.5t33.5 12.5q35 0 35 -31q0 -18 -15 -31.5t-34 -13.5q-16 0 -24.5 9t-8.5 22zM188 752q0 20 14.5 32.5t35.5 12.5q32 0 32 -31q0 -18 -15 -31.5t-34 -13.5q-16 0 -24.5 9t-8.5 22z" />
<glyph unicode=";" horiz-adv-x="407" d="M16 -133l60 117q-19 10 -19 24q0 18 11.5 28.5t29.5 10.5q29 0 29 -27q0 -8 -3 -13l-3 -5l-72 -135h-33zM203 752q0 20 14 32.5t35 12.5q33 0 33 -31q0 -18 -15 -31.5t-34 -13.5q-16 0 -24.5 9t-8.5 22z" />
<glyph unicode="&#x3c;" horiz-adv-x="1005" d="M135 700l6 31l811 338l-8 -39l-760 -315l623 -336l-8 -37z" />
<glyph unicode="=" horiz-adv-x="1062" d="M135 463l8 35h731l-8 -35h-731zM211 819l8 35h731l-8 -35h-731z" />
<glyph unicode="&#x3e;" horiz-adv-x="1013" d="M106 342l9 37l764 338l-627 313l8 39l668 -338l-6 -31z" />
<glyph unicode="?" horiz-adv-x="974" d="M197 1124q59 160 187.5 237t297.5 77q161 0 252.5 -94t56.5 -252q-17 -76 -51.5 -135.5t-78.5 -100t-94.5 -79t-102.5 -84.5t-99 -103.5t-88.5 -149.5t-66.5 -209h-37q25 120 66.5 214.5t89 154t99.5 107t103 86t95 77.5t79 95t51 127q31 144 -52.5 226.5t-229.5 82.5 q-338 0 -443 -277h-34zM307 6q0 17 12.5 27t30.5 10q29 0 29 -25q0 -17 -12 -29t-31 -12q-29 0 -29 29z" />
<glyph unicode="@" horiz-adv-x="1808" d="M73.5 262.5q-0.5 113.5 30.5 245.5q57 229 203.5 409.5t354 280.5t438.5 100q175 0 308.5 -56.5t210.5 -159.5t99.5 -247.5t-24.5 -320.5q-15 -58 -37 -120.5t-59.5 -135.5t-81 -128.5t-104.5 -92.5t-126 -35q-42 0 -65.5 16.5t-28.5 48.5t-0.5 67t18.5 83l19 68 q-82 -131 -215.5 -210t-274.5 -79q-86 0 -152.5 27.5t-107 75t-61.5 112.5t-20.5 140t20.5 157q30 121 93 219.5t145 161.5t176.5 97t191.5 34q117 -2 218.5 -44.5t164.5 -117.5l-160 -641q-21 -93 -21 -117q-1 -65 64 -65q56 -2 109.5 33t92.5 88t73.5 123t55 126t34.5 109 q45 169 23.5 307t-94.5 236t-199.5 151.5t-292.5 53.5q-221 0 -418.5 -95.5t-337.5 -267.5t-195 -391q-39 -150 -26.5 -272t59 -216t130.5 -155.5t189.5 -89t235.5 -18t268 58.5l-10 -37q-122 -42 -239 -54.5t-216 4t-184 59t-144 111t-94.5 159.5t-36 204.5zM436 327.5 q8 -86.5 40.5 -151.5t102.5 -104t169 -39q181 0 327 123t197 305l96 383q-113 129 -350 139q-89 0 -176.5 -31t-164.5 -89t-136.5 -150t-87.5 -205q-25 -94 -17 -180.5z" />
<glyph unicode="A" d="M-70 0v2l979 1434h17l364 -1434v-2h-35l-125 473h-835l-326 -473h-39zM317 508h807l-219 858z" />
<glyph unicode="B" horiz-adv-x="1361" d="M90 0l305 1436h508q383 0 383 -279q0 -161 -76.5 -265t-246.5 -147q119 -25 182 -96.5t63 -187.5q0 -118 -40.5 -207.5t-114 -144.5t-172 -82t-219.5 -27h-572zM131 31h537q103 0 191.5 25t159 75t110.5 132.5t40 189.5q0 69 -22.5 119.5t-58.5 80t-92 47t-112.5 23.5 t-129.5 6h-473zM287 762h473q86 0 155.5 10.5t133.5 38t107.5 71.5t69 114t25.5 163q0 72 -26.5 121.5t-77 76.5t-111.5 38.5t-141 11.5h-473z" />
<glyph unicode="C" horiz-adv-x="1560" d="M129 571q0 178 71 341.5t190 281.5q120 118 286 188q161 68 338 68h10q199 0 342.5 -102t187.5 -281h-38q-44 165 -177 255.5t-325 92.5h-10q-168 1 -320 -65q-158 -68 -271 -182.5t-180 -271t-67 -325.5q0 -246 146 -399.5t399 -153.5q198 0 378.5 99t294.5 278h39 q-116 -197 -307.5 -304t-406.5 -107q-266 0 -423 164t-157 423z" />
<glyph unicode="D" horiz-adv-x="1511" d="M90 0l305 1434h479q174 0 302 -76t193 -205.5t65 -294.5q0 -173 -65 -330.5t-178.5 -274t-275.5 -185t-346 -68.5h-479zM135 35h440q169 0 321.5 64.5t262 174t174 261t64.5 317.5q0 157 -60 279.5t-181.5 195t-289.5 72.5h-440z" />
<glyph unicode="E" horiz-adv-x="1173" d="M90 0l305 1434h809l-8 -35h-774l-135 -641h747l-8 -33h-747l-146 -690h778l-8 -35h-813z" />
<glyph unicode="F" horiz-adv-x="1167" d="M90 0l305 1434h824l-9 -35h-786l-141 -666h735l-8 -35h-736l-147 -698h-37z" />
<glyph unicode="G" horiz-adv-x="1611" d="M129 569q0 178 70.5 341t189 281t282 188.5t341.5 70.5q465 0 542 -381h-36q-35 179 -170.5 261.5t-346.5 82.5q-172 -2 -326.5 -68.5t-265.5 -178t-176 -266t-65 -325.5q0 -119 35.5 -220.5t102.5 -176t170 -116.5t231 -42q292 0 512 184.5t290 477.5h-628l6 33h663 q-52 -214 -141 -346q-121 -183 -303.5 -284t-407.5 -101q-135 0 -243.5 44.5t-179 123t-108.5 185t-38 232.5z" />
<glyph unicode="H" horiz-adv-x="1468" d="M90 0l305 1434h35l-141 -662h966l142 662h37l-306 -1434h-36l157 737h-966l-158 -737h-35z" />
<glyph unicode="I" horiz-adv-x="724" d="M-74 0l6 33h293l293 1370h-274l6 31h586l-7 -31h-274l-293 -1370h293l-6 -33h-623z" />
<glyph unicode="J" horiz-adv-x="1323" d="M61 485l27 125h37l-27 -125q-13 -66 -13 -123q0 -133 71 -219q102 -123 321 -123q220 0 379.5 123.5t208.5 341.5l195 912h-443l8 37h480l-201 -949q-49 -233 -221.5 -367t-407.5 -134q-236 0 -349 134q-80 94 -80 236q0 61 15 131z" />
<glyph unicode="K" horiz-adv-x="1273" d="M90 0l305 1434h33l-149 -713q6 1 19 1q18 0 54 -2q11 -1 25 -1q55 1 139 11q104 12 166 38q27 11 54.5 32.5t54.5 55.5t47 61t46 73.5t38 68.5t35.5 70t27.5 55q21 39 38.5 69t38 58t40.5 47.5t44 36.5t50 27q26 8 56 14q26 5 56 5h10q36 -1 77 -7l-9 -31q-41 7 -76 7 q-44 0 -80 -11q-64 -20 -111 -72.5t-99 -152.5q-7 -13 -37 -69.5t-43.5 -81t-44 -74.5t-53.5 -79t-56 -62.5t-65 -55.5l401 -748v-4h-39l-393 733q-14 -7 -33.5 -13t-37.5 -10.5t-45 -8t-44.5 -5.5t-49.5 -3.5t-46.5 -2.5t-48 -1.5t-42 -0.5h-41.5h-32l-143 -688h-37z" />
<glyph unicode="L" horiz-adv-x="1028" d="M90 0l305 1434h37l-299 -1401h762l-6 -33h-799z" />
<glyph unicode="M" horiz-adv-x="1681" d="M90 0l305 1436h21l407 -922l801 922h23l-306 -1436h-36l286 1348l-768 -889h-16l-393 889l-287 -1348h-37z" />
<glyph unicode="N" horiz-adv-x="1515" d="M90 0l305 1436h21l741 -1354l287 1354h37l-305 -1436h-17l-743 1360l-291 -1360h-35z" />
<glyph unicode="O" horiz-adv-x="1689" d="M129 569q0 183 72.5 347t194 280.5t286.5 185t344 68.5q271 0 429.5 -161.5t158.5 -424.5q0 -183 -72 -347t-193.5 -280.5t-287.5 -184.5t-348 -68q-267 0 -425.5 161.5t-158.5 423.5zM166 575q0 -250 146.5 -403.5t400.5 -153.5q174 0 333 64.5t276 175.5t186 267.5 t69 330.5q0 252 -145.5 404.5t-401.5 152.5q-172 0 -330.5 -65t-276 -175.5t-187.5 -267t-70 -330.5z" />
<glyph unicode="P" horiz-adv-x="1320" d="M90 2q52 241 152.5 716t152.5 716h535q212 0 318 -122q84 -95 83 -246q0 -41 -6 -87q-21 -141 -109.5 -248.5t-214.5 -162t-268 -54.5h-500l-108 -512h-35zM242 547h499q147 0 273.5 63t205 181t78.5 264q0 163 -94.5 254.5t-281.5 91.5h-500z" />
<glyph unicode="Q" horiz-adv-x="1689" d="M131 573q0 183 72.5 346.5t194 279.5t287 183.5t345.5 67.5q268 0 427 -161t159 -423q0 -199 -85.5 -376.5t-240.5 -307.5l90 -186v-6h-39l-81 168q-229 -174 -543 -174q-267 0 -426.5 163.5t-159.5 425.5zM166 580v-16q0 -239 146 -390q151 -156 405 -156 q231 0 428 110.5t315 304.5t121 427v16q0 237 -146 384q-151 153 -407 153q-172 0 -329.5 -64t-274 -174t-186.5 -265.5t-72 -329.5z" />
<glyph unicode="R" horiz-adv-x="1347" d="M90 0l305 1434h533q198 0 304 -116q86 -94 86 -240q0 -34 -5 -72q-11 -123 -92 -220.5t-195.5 -150t-239.5 -60.5l369 -569l-2 -6h-39l-364 575h-500l-123 -575h-37zM256 608h496q137 0 256 54.5t196.5 163.5t77.5 251q0 151 -101 237.5t-261 86.5h-496z" />
<glyph unicode="S" horiz-adv-x="1316" d="M57 358h37q-3 -22 -3 -43q0 -65 28 -117q37 -69 107.5 -106.5t151.5 -55.5t171 -18q91 0 180.5 20t172.5 60.5t144 111.5t82 163q9 39 10 73.5t-8.5 62t-21 50t-36.5 41t-45 32t-56.5 25.5t-61.5 20t-69.5 16t-70 12.5t-73.5 11.5q-60 9 -99 15.5t-92 19t-87 26.5 t-71.5 36.5t-59 50t-35.5 66t-14 85.5q0 88 35 161.5t92.5 123t134 84t158 50t165.5 15.5q71 0 137.5 -11t130 -37t107.5 -65t68 -100q16 -43 17 -93q0 -21 -3 -44h-35q2 18 2 35q-1 48 -17 88q-22 55 -64.5 89.5t-101.5 58t-120 33t-125 9.5q-78 0 -153.5 -14t-146.5 -45 t-124.5 -76t-86 -112t-32.5 -148q0 -50 18.5 -90t51 -66t73.5 -45t89.5 -30t94.5 -18.5t93 -13.5q7 -1 11 -1q45 -6 78 -12t75 -14.5t73 -18t65.5 -23t59 -30t48 -37t37.5 -46.5q15 -26 23 -57q8 -29 8 -65q0 -40 -11 -86q-19 -83 -65.5 -149.5t-107.5 -109t-137.5 -71 t-152.5 -40t-155 -11.5q-81 0 -154.5 12t-140.5 40.5t-113 70.5q-47 43 -69 107q-15 43 -15 93q0 25 4 51z" />
<glyph unicode="T" horiz-adv-x="1103" d="M199 1397l8 37h1040l-8 -37h-502l-297 -1397h-37l297 1397h-501z" />
<glyph unicode="U" horiz-adv-x="1447" d="M180 496l199 938h37l-199 -938q-15 -70 -16 -130q0 -132 74 -219q107 -127 331 -127q223 0 382 126.5t208 349.5l199 938h32l-196 -938q-51 -241 -216 -376.5t-415 -135.5q-241 0 -355 138q-80 96 -80 241q0 62 15 133z" />
<glyph unicode="V" horiz-adv-x="1343" d="M252 1430v4h37l137 -723l129 -639h2l391 639l447 723h39v-4l-885 -1432h-14z" />
<glyph unicode="W" horiz-adv-x="1910" d="M262 1427l2 7h33l51 -623l60 -713l706 1309h16l146 -1307h2l362 713l316 621h37l-2 -2l-723 -1436h-17l-147 1317l-711 -1317h-14z" />
<glyph unicode="X" horiz-adv-x="1204" d="M-100 0v4l718 750l-360 676l2 4h39l342 -650h2l627 650h41v-2l-649 -678l399 -752v-2h-39l-383 723h-2l-694 -723h-43z" />
<glyph unicode="Y" horiz-adv-x="1269" d="M244 1432v2h39l352 -791l688 791h41v-4l-717 -828l-129 -602h-37l129 602z" />
<glyph unicode="Z" horiz-adv-x="1150" d="M-98 0v2l1290 1395h-918l9 37h987l-2 -7l-1284 -1390h989l-8 -37h-1063z" />
<glyph unicode="[" horiz-adv-x="546" d="M-4 -330l393 1846h266l-6 -33h-229l-379 -1778h229l-8 -35h-266z" />
<glyph unicode="\" horiz-adv-x="892" d="M260 1434h41l387 -1432h-39z" />
<glyph unicode="]" horiz-adv-x="544" d="M-109 -330l7 35h229l379 1778h-230l9 33h266l-393 -1846h-267z" />
<glyph unicode="^" horiz-adv-x="972" d="M205 881l444 542h29l227 -542h-41l-207 499l-409 -499h-43z" />
<glyph unicode="_" horiz-adv-x="1257" d="M12 -61l8 34h955l-8 -34h-955z" />
<glyph unicode="`" horiz-adv-x="688" d="M543 1448v4l37 23l141 -275v-4h-39z" />
<glyph unicode="a" horiz-adv-x="1200" d="M72 386q2 62 16 122q54 232 227 364t416 132q183 0 346 -93l-151 -716q-16 -79 -16 -110q0 -6 1 -11q6 -47 68 -47q22 -1 51 4l-4 -33q-29 -4 -51.5 -4t-39 3t-28 11.5t-19 17.5t-10.5 24.5t-4 29t1.5 34.5t5.5 38.5t8 42.5l18 81q-74 -135 -203.5 -213.5t-271.5 -78.5 q-76 0 -138.5 22t-103.5 60.5t-68 89.5q-28 52 -40 110q-10 52 -10 105v15zM112 354q0 -70 23 -130q23 -62 61.5 -107t101.5 -71t142 -26q194 0 331.5 133.5t182.5 348.5l82 391q-136 78 -311 78q-142 0 -267 -56t-213 -163t-118 -248q-15 -79 -15 -150z" />
<glyph unicode="b" horiz-adv-x="1175" d="M59 74l299 1411h37l-168 -787q70 136 192 221t275 85q129 0 221.5 -59t132.5 -177q19 -56 19 -125q0 -76 -23 -168q-60 -241 -228.5 -366t-405.5 -125q-187 0 -351 90zM100 96q149 -76 318 -76q220 0 379.5 123.5t208.5 341.5q20 89 20 162q0 123 -58 199 q-92 120 -280 119q-98 0 -186 -42t-151 -111t-106.5 -153.5t-62.5 -175.5z" />
<glyph unicode="c" horiz-adv-x="1163" d="M78 397q0 115 38.5 215t103 170.5t148 121.5t173 75.5t178.5 24.5q145 0 248 -66t127 -195h-35q-28 116 -121.5 171t-226.5 55q-82 0 -165.5 -23t-160.5 -70.5t-136.5 -113t-95.5 -158t-36 -198.5q0 -183 111 -284.5t274 -101.5q137 0 262.5 67t208.5 198h41 q-89 -150 -225 -225.5t-289 -75.5q-84 0 -159.5 27t-134.5 77.5t-93.5 130.5t-34.5 178z" />
<glyph unicode="d" horiz-adv-x="1222" d="M80 387q0 95 23 184.5t70.5 168t115 137.5t162 93t204.5 34q152 0 245 -84t99 -222l172 809h39l-280 -1312q-15 -81 -15 -109v-6q6 -53 71 -53q20 0 46 4l-4 -37q-29 -4 -52 -4t-39.5 3t-28 12t-19 18.5t-10.5 25t-3.5 29.5t2 35.5t5.5 39t8 42.5l18 81 q-74 -131 -205 -211.5t-270 -80.5q-117 0 -198.5 56t-118.5 145t-37 202zM117 395q0 -77 19 -143t56.5 -118t100.5 -81.5t145 -29.5q114 0 215 52.5t169.5 137.5t108.5 194t40 222q0 338 -324 338q-127 0 -230.5 -50t-167.5 -132t-98 -182.5t-34 -207.5z" />
<glyph unicode="e" horiz-adv-x="1099" d="M69 350v21q0 102 44 221q69 193 225.5 302.5t368.5 109.5q73 0 139.5 -19t119 -58t71.5 -99q9 -28 9 -59q0 -37 -12 -81q-21 -73 -72.5 -126t-119.5 -79.5t-134.5 -38.5t-136.5 -12q-125 0 -242 35t-186 104q-37 -102 -37 -191q0 -14 1 -29q7 -101 52 -174.5t135 -115 t214 -41.5h13q157 0 333 68l-10 -41q-177 -63 -344 -63q-135 2 -232.5 48t-145.5 127t-53 191zM160 610q53 -65 178 -103t240 -38q59 0 120 12t122.5 36.5t108.5 70.5t64 106q12 40 12 74q0 26 -8 50q-17 52 -67.5 84.5t-110.5 47.5t-125 15h-8q-180 0 -316 -89 q-139 -91 -210 -266z" />
<glyph unicode="f" horiz-adv-x="735" d="M-252 -508l10 37q47 -10 88 -11h3q39 0 69 10q32 10 58 26t47 42.5t37 55t29.5 68t23.5 77.5t20 86l225 1059h-264l8 33h263l38 180q26 123 85 206.5t136 118.5q67 30 142 30q13 0 26 -1q91 -6 183 -55l-19 -27q-84 43 -166 49q-13 1 -25 1q-67 0 -125 -27 q-69 -31 -121.5 -106.5t-76.5 -188.5l-39 -180h402l-8 -33h-400l-225 -1059q-10 -47 -20 -85t-23 -76.5t-28.5 -68.5t-35 -58t-42.5 -47.5t-51.5 -34.5t-62 -22t-74 -7t-87.5 8z" />
<glyph unicode="g" horiz-adv-x="1173" d="M-37 -395l23 30q84 -56 184 -85q86 -26 174 -26q15 0 30 1q104 5 195 44t161.5 130t98.5 223l82 373q-75 -145 -198 -228t-275 -83q-168 0 -265 100.5t-97 288.5t88 333t235 221.5t326 76.5q175 0 348 -95l-211 -991q-22 -101 -67.5 -180t-105 -128.5t-131.5 -80 t-149 -37.5q-30 -2 -61 -2q-47 0 -94 6q-79 10 -153 38t-138 71zM111 379q0 -177 88 -269t243 -92q99 0 187 40.5t151 109t106.5 153t63.5 177.5l84 395q-62 36 -149.5 56t-167.5 20q-168 0 -305 -70t-219 -205.5t-82 -314.5z" />
<glyph unicode="h" horiz-adv-x="1181" d="M47 -6l320 1499h36l-159 -743q64 116 181 185t257 69q193 0 275 -111q54 -73 55 -183q0 -56 -15 -122l-84 -391q-6 -26 -9.5 -42.5t-6.5 -36.5t-1.5 -32.5t5.5 -26t14 -20.5t24.5 -11.5t36.5 -4t50 5.5l-4 -33q-34 -6 -61 -6q-2 0 -4 -1q-24 -1 -41 5q-18 6 -30.5 14.5 t-18 24t-8 31t0 39t6.5 44.5t11 50l81 389q16 69 16 126q0 96 -46 158q-72 98 -254 99q-175 0 -300.5 -107t-162.5 -280l-125 -588h-39z" />
<glyph unicode="i" horiz-adv-x="399" d="M57 0l211 987h35l-211 -987h-35zM328 1346q0 22 12 33.5t31 11.5q11 0 19.5 -8t8.5 -21q0 -21 -13.5 -33t-29.5 -12q-28 0 -28 29z" />
<glyph unicode="j" horiz-adv-x="401" d="M-350 -508l10 37q47 -10 88 -11h3q39 0 69 10q31 10 57.5 26t47 42.5t36.5 55t29.5 68t23 77t19.5 86.5l235 1104h37l-235 -1104q-11 -54 -22 -96t-26 -85.5t-33.5 -75.5t-41.5 -61t-52.5 -46.5t-65.5 -28.5q-33 -10 -74 -10h-7q-45 1 -98 12zM328 1346q0 22 12 33.5 t31 11.5q11 0 19.5 -8t8.5 -21q0 -22 -13 -33.5t-32 -11.5q-26 0 -26 29z" />
<glyph unicode="k" horiz-adv-x="1040" d="M49 0l318 1497h36l-204 -965h192q243 0 391.5 109t198.5 346h35q-80 -387 -430 -469l278 -512l-2 -6h-35l-274 508q-64 -10 -170 -10h-193l-104 -498h-37z" />
<glyph unicode="l" horiz-adv-x="493" d="M96 150q-1 14 -2 30q0 16 2 34q2 36 8 72t15 81l241 1136h39l-241 -1136q-9 -43 -14.5 -74t-9 -65t-2 -58t7 -48.5t18 -39.5t32 -28t47 -18t64.5 -5t84 6l-4 -37q-51 -7 -91.5 -7t-71.5 6.5t-53 20.5t-37 31.5t-22.5 44t-9.5 54.5z" />
<glyph unicode="m" horiz-adv-x="1832" d="M80 0l178 836q7 32 7 57q-1 38 -17 56q-19 21 -67 21q-20 0 -44 -3l6 28q30 5 55 5q58 0 82 -28q22 -25 23 -72q0 -28 -8 -64l-14 -66q72 112 182.5 172t245.5 62q260 0 260 -259v-6q68 126 182.5 195.5t259.5 69.5q252 0 252 -255q0 -65 -16 -147l-80 -375 q-22 -104 -21 -132q2 -63 65 -68h12q25 0 58 6l-6 -33q-33 -5 -59 -5t-45 3t-31 14t-20 20t-10 29t-2.5 34t4 41t8 43l10.5 48l80 375q12 64 16 114q1 14 0 28q0 36 -6 71q-9 49 -32.5 81.5t-69.5 52.5t-113 20q-172 0 -295 -105.5t-160 -277.5l-125 -586h-34l124 586 q13 65 17 119q1 14 1 28q0 39 -7 77q-10 51 -35 85.5t-73 54.5q-44 19 -106 19h-12q-175 0 -298 -105t-160 -278l-125 -586h-37z" />
<glyph unicode="n" horiz-adv-x="1189" d="M72 0q33 157 93.5 439.5t84.5 398.5q8 38 8 64q0 30 -11 44q-14 18 -60 19q-21 0 -48 -4l2 32q28 4 51 4q60 1 82 -25q17 -20 17 -63q0 -30 -8 -71l-15 -70q70 114 185.5 175t244.5 61q180 0 266 -112q61 -78 61 -190q0 -48 -11 -102l-86 -403q-6 -26 -9.5 -40.5 t-6.5 -35.5t-1.5 -32t4.5 -25t12.5 -20.5t23.5 -11.5t35.5 -4.5t49.5 5.5l-6 -37q-32 -5 -57 -5q-39 1 -61 13q-36 20 -36 67t17 126l86 403q11 52 11 98q0 102 -56 171q-80 100 -244 100q-168 0 -295 -104.5t-164 -272.5l-125 -592h-34z" />
<glyph unicode="o" horiz-adv-x="1253" d="M78 395q0 116 38 216.5t101.5 171.5t147 121.5t174 75t182.5 24.5q114 0 207 -44.5t151 -138.5t58 -223q0 -116 -38 -217t-101.5 -172.5t-146.5 -123t-173.5 -76.5t-181.5 -25q-114 0 -207.5 45.5t-152 140.5t-58.5 225zM113 401q0 -121 55 -210t142 -131t194 -42 q83 0 167 23t161 71t137 115t95.5 161t35.5 202q0 178 -110.5 278.5t-274.5 100.5q-85 0 -169.5 -22.5t-163 -69.5t-138 -113t-95.5 -160t-36 -203z" />
<glyph unicode="p" horiz-adv-x="1206" d="M-41 -504l277 1303q15 71 15 104q0 10 -1 16q-9 45 -74 45q-19 0 -41 -3h-2l4 34q26 3 47 3.5t36.5 -2.5t27 -7.5t19 -14.5t12.5 -18.5t6 -24t1 -27t-3 -32t-5.5 -35t-7.5 -38.5l-16 -72q72 131 203 204t278 73q172 0 264.5 -109t92.5 -281q0 -118 -39.5 -230 t-111 -201.5t-183.5 -144t-246 -54.5q-150 0 -239 90.5t-101 236.5l-180 -815h-33zM201 391q0 -78 17 -143t53 -117.5t97.5 -81.5t143.5 -29q102 0 190.5 33.5t152 90.5t109.5 132.5t68.5 159.5t22.5 170q0 164 -81.5 261.5t-246.5 97.5q-156 0 -277 -76.5t-185 -206.5 t-64 -291z" />
<glyph unicode="q" horiz-adv-x="1175" d="M76 375q0 188 88 332.5t234.5 220.5t326.5 76q171 0 348 -97l-299 -1411h-33l170 799q-75 -150 -195.5 -230.5t-273.5 -80.5q-165 0 -265.5 102t-100.5 289zM113 379q0 -174 93 -266.5t245 -92.5q98 0 185 40.5t149 108.5t104 152t61 177l84 393q-139 78 -317 78 q-169 0 -305.5 -70.5t-217.5 -206t-81 -313.5z" />
<glyph unicode="r" horiz-adv-x="815" d="M66 0l178 813q5 21 6.5 30t5 26.5t3 25t-0.5 20.5t-4 18t-9.5 13.5t-15.5 11t-22.5 5.5t-29.5 2.5t-38 -2.5l2 30q30 4 54 4q23 0 41 -4q36 -8 48 -35t10 -59t-13 -84q55 91 147.5 140t200.5 49q132 0 233 -82l-24 -31q-92 76 -217 76q-121 0 -232 -82t-135 -201 l-152 -684h-36z" />
<glyph unicode="s" horiz-adv-x="1030" d="M20 260h37q-1 -12 -1 -23q0 -100 90 -155q100 -62 251 -62q101 0 188.5 25t155 83t88.5 142q6 31 6 56t-8 45t-19.5 35t-30 27t-38.5 21t-45.5 15.5t-51.5 11t-55 8.5t-57 7q-23 3 -34 4q-143 17 -195 32q-150 44 -150 165q0 12 2 26q1 15 5 31q15 64 60 113.5t108 78.5 t133 43.5t143 14.5q75 0 140.5 -16t114.5 -46t72 -78q15 -32 15 -68q0 -19 -4 -40h-35q4 19 4 36q-1 33 -15 61q-22 42 -67.5 66.5t-104.5 37t-128 12.5q-90 0 -173 -24t-146.5 -75t-81.5 -120q-7 -26 -7 -48q0 -16 4 -29q8 -33 27 -55t52 -37t69.5 -23t80 -13.5t82.5 -9.5 h5q37 -4 62 -7.5t59.5 -8.5t57 -11t51 -15t46 -20t37 -25.5t29.5 -33t17 -41t6 -50.5t-7 -61q-21 -91 -94.5 -155.5t-170 -93.5t-206.5 -29q-166 0 -275 72q-99 65 -99 180q0 12 1 24z" />
<glyph unicode="t" horiz-adv-x="757" d="M98 952l6 29h238l66 307h36l-65 -307h403l-6 -31h-403l-119 -561q-21 -95 -21 -165q0 -114 55 -164q44 -40 128 -40q85 0 211 41l4 -36q-127 -42 -218 -42q-97 0 -151 49q-66 61 -66 190q0 73 21 167l119 561z" />
<glyph unicode="u" horiz-adv-x="1159" d="M123 399l125 588h35l-125 -588q-14 -61 -14 -113q0 -92 44 -160q68 -106 228 -106q172 0 301 105t166 276l125 586h34l-161 -760q-12 -53 -17.5 -87.5t-4 -59.5t8 -38t22 -18.5t34.5 -5t51 4.5l-2 -33q-32 -4 -55.5 -5t-41 4t-28.5 12t-16.5 23.5t-7 33t1.5 45.5t8 57 t14 71q-144 -247 -438 -247q-177 0 -251 114q-49 76 -49 183q0 55 13 118z" />
<glyph unicode="v" horiz-adv-x="1126" d="M111 967l6 34q30 4 54 4q41 -1 65 -13q37 -20 37 -70q0 -48 -15 -121l-86 -404q-10 -50 -10 -94q0 -101 52 -172q75 -102 243 -102q113 0 202 35.5t145 95t93.5 141t53 168t17.5 182.5q1 23 1 45q0 72 -6 134q-8 82 -23 161h39q14 -87 20 -172q4 -54 4 -114q1 -35 -1 -73 q-4 -102 -21.5 -190t-57.5 -172.5t-100.5 -144.5t-156 -96.5t-217.5 -36.5q-179 4 -265 114q-60 77 -60 189q0 48 11 102l86 404q16 80 16 110v8q-6 50 -69 52q-24 1 -57 -4z" />
<glyph unicode="w" horiz-adv-x="1748" d="M109 963l8 34q30 4 53 4q42 -1 64 -13q36 -20 36 -68t-16 -123l-88 -416q-11 -51 -11 -96q1 -93 47 -159q68 -98 218 -99q153 0 268 100t148 254l127 602h34l-127 -602q-11 -50 -11 -94q0 -93 48 -161q70 -100 223 -99q101 0 180 36t128.5 96t83 142t47.5 169 q15 86 17 182q1 25 0 49q0 68 -5 128q-7 81 -20 158h32q9 -58 15 -117.5t8 -135.5q1 -29 1 -57q0 -45 -2 -89q-4 -70 -17.5 -145.5t-36.5 -139.5t-61.5 -122t-89.5 -98.5t-124 -64.5t-162 -24q-135 0 -212 68.5t-85 187.5q-58 -116 -168 -186t-245 -70q-166 0 -244 110 q-53 75 -53 178q0 49 12 103l88 412q18 77 18 111q0 8 -1 13q-9 46 -76 46q-10 0 -22 -1q-13 -1 -27 -3z" />
<glyph unicode="x" horiz-adv-x="929" d="M-88 0v4l522 520l-256 461v2h41l238 -434h2l436 434h43v-4l-461 -459l287 -520v-4h-37l-272 494h-2l-492 -494h-49z" />
<glyph unicode="y" horiz-adv-x="1241" d="M29 -395l18 30q68 -46 150 -73.5t167 -35.5q24 -2 48 -2q61 0 122 14q83 21 153.5 65t124 126t77.5 193l80 369q-75 -144 -196.5 -225.5t-272.5 -81.5q-98 0 -170 27t-120 85t-58 148q-3 25 -3 53q0 72 19 164l70 327q11 62 13 104v5q0 37 -29 52q-16 9 -46 9 q-24 0 -57 -6l6 33q37 7 66 7q37 0 60 -12q39 -20 39 -69q0 -47 -16 -123l-69 -327q-19 -88 -19 -158q0 -113 50 -178q83 -105 270 -105q98 0 186 40.5t151 108t106.5 152.5t62.5 177l104 489h35l-227 -1065q-26 -120 -82.5 -209.5t-131 -138t-162.5 -70.5q-66 -17 -133 -17 q-23 0 -45 1q-91 8 -178.5 37.5t-162.5 79.5z" />
<glyph unicode="z" horiz-adv-x="899" d="M-80 0l2 8l924 944h-672l6 35h738l-3 -12l-917 -940h711l-9 -35h-780z" />
<glyph unicode="{" horiz-adv-x="534" d="M57 -72l86 412q21 114 16 159q-9 77 -73 91l6 31q121 22 164 251l90 412q29 137 98 193.5t205 56.5l-8 -37q-119 0 -176.5 -46t-83.5 -167l-88 -412q-38 -208 -152 -266q28 -17 41.5 -47t13 -73t-3.5 -70.5t-12 -75.5l-88 -412q-26 -121 12 -167t158 -46l-8 -37 q-137 0 -181.5 57t-15.5 193z" />
<glyph unicode="|" horiz-adv-x="428" d="M41 -147q12 46 167.5 784t166.5 784h35l-334 -1568h-35z" />
<glyph unicode="}" horiz-adv-x="534" d="M-106 -322l8 37q119 0 177.5 46t82.5 167l88 412q38 209 149 266q-22 14 -35 39.5t-17 48t-1 62t6 57.5t10 59l89 412q26 120 -12 166.5t-158 46.5l8 37q136 0 180.5 -56.5t15.5 -193.5l-86 -412q-21 -117 -14 -164q10 -73 72 -87l-6 -31q-28 -6 -51 -20t-39.5 -36 t-28.5 -44.5t-21 -51.5t-14 -50t-10 -48l-90 -412q-29 -137 -98 -193.5t-205 -56.5z" />
<glyph unicode="~" horiz-adv-x="1220" d="M168 659q70 97 158.5 133t170 16.5t154.5 -81.5q51 -45 104 -69t110 -26t113.5 34.5t102.5 111.5l27 -12q-53 -81 -116.5 -122.5t-127.5 -42.5t-124.5 25t-116.5 76q-63 54 -135 71t-151 -14t-142 -114z" />
<glyph unicode="&#xa1;" horiz-adv-x="389" d="M-45 -459l256 1204h37l-256 -1204h-37zM242 958q0 17 12.5 28t30.5 11q26 0 26 -26q0 -37 -39 -37q-30 0 -30 24z" />
<glyph unicode="&#xa2;" horiz-adv-x="1236" d="M111 397q0 83 20 159t56 136t84.5 112.5t105.5 88.5t120 63.5t127 38.5t126.5 13t119.5 -13l86 154h33l-86 -160q187 -64 223 -250l-36 -12q-32 163 -207 229l-506 -911q78 -31 171.5 -26t180 35t165.5 96.5t130 158.5l33 -10q-44 -81 -109 -143.5t-138.5 -100.5 t-152.5 -56.5t-156 -15t-145 28.5l-92 -170h-33l101 183q-102 44 -161.5 140t-59.5 232zM147 403q0 -125 54.5 -214t148.5 -132l504 906q-53 14 -112 12t-118.5 -12.5t-118 -36.5t-111.5 -60t-98.5 -83t-78.5 -105t-51.5 -127t-18.5 -148z" />
<glyph unicode="&#xa3;" horiz-adv-x="1339" d="M0 0l2 8q102 84 165.5 160t104.5 178q51 129 54 361h-195l8 36h189q2 106 25.5 206t72.5 192t119 160.5t172 109.5t223 41q110 0 203.5 -36t152.5 -109l-30 -27q-114 137 -334 137q-115 0 -210.5 -39.5t-160 -105.5t-110 -154t-66.5 -182t-23 -193h547l-8 -36h-539 q-3 -236 -57 -369q-49 -121 -166 -244q69 25 146 25.5t150 -16t141.5 -36t145.5 -36.5t138 -17q97 0 159 55.5t97 196.5h35q-35 -157 -110 -221.5t-187 -64.5q-60 0 -151 21.5t-174 43t-172 34.5t-172 -5t-146 -74h-39z" />
<glyph unicode="&#xa4;" horiz-adv-x="1017" d="M102 371l131 112q-38 55 -38 152q0 171 147 291l-86 108l33 27l84 -111q107 70 227 70q138 0 215 -86l129 113l23 -25l-131 -113q36 -55 36 -149q0 -174 -145 -293l84 -109l-31 -24l-88 108q-106 -69 -227 -69q-136 0 -211 84l-133 -111zM231 639q0 -110 69.5 -169.5 t172.5 -59.5q66 0 130 23t117 64.5t85.5 108t32.5 146.5q0 110 -69.5 170.5t-172.5 60.5q-66 0 -130 -22t-117 -63.5t-85.5 -109t-32.5 -149.5z" />
<glyph unicode="&#xa5;" horiz-adv-x="1028" d="M141 377l6 33h302l40 184h-301l7 33h288l-231 805l2 2h41l223 -791l563 791h39l-2 -2l-573 -805h289l-7 -33h-301l-41 -184h301l-6 -33h-301l-80 -377h-37l80 377h-301z" />
<glyph unicode="&#xa6;" horiz-adv-x="434" d="M72 -12q8 47 64.5 303t64.5 303h35l-130 -606h-34zM250 823q14 80 62 308t65 290h35l-127 -598h-35z" />
<glyph unicode="&#xa7;" horiz-adv-x="1310" d="M-2 6l41 2q-9 -66 16 -118t72 -84t110.5 -52.5t125.5 -27.5t122 -5q76 3 154.5 18.5t160.5 47.5t142.5 91.5t77.5 137.5q6 37 5 67t-14 55t-29.5 44.5t-42.5 35t-53.5 27.5t-61 20.5t-66 15t-69 11t-68.5 8t-66 6.5q-63 6 -90 9q-58 7 -102.5 19t-86.5 34t-68 52.5 t-38 77t-4 106.5q19 119 114 200t222 111q-105 25 -162 75t-57 136q0 75 34.5 136t89.5 100t127.5 66t144.5 38t144 11q59 2 120.5 -6t122.5 -30t106.5 -55t69.5 -86t15 -118l-38 -2q8 59 -15 106t-65 75t-99.5 46.5t-112.5 25.5t-112 7q-60 0 -123.5 -9.5t-131 -33 t-119.5 -58t-85.5 -89t-33.5 -120.5q0 -45 23 -79.5t58 -56t91.5 -38t107 -25t121.5 -16.5q98 -10 155 -18.5t132.5 -31t112 -54t56.5 -87t3 -130.5q-25 -108 -112 -188t-202 -117q114 -32 166 -98.5t25 -184.5q-19 -86 -83.5 -151t-153.5 -99.5t-175 -51t-170 -19.5 q-66 -2 -133.5 6.5t-135.5 32t-118 59.5t-76.5 93.5t-15.5 129.5zM205 569q0 -55 22 -96t62 -65t85 -36.5t103 -19.5q28 -3 82.5 -9.5t87 -10.5t78 -11t82.5 -16q117 27 215 107t121 188q10 55 2.5 95.5t-35 68.5t-65 46.5t-87.5 30.5t-104 20t-112 15q-19 2 -29 3 q-129 16 -142 18q-66 -11 -128.5 -36t-117 -64.5t-87.5 -98.5t-33 -129z" />
<glyph unicode="&#xa8;" horiz-adv-x="872" d="M502 1399q0 20 14 32.5t35 12.5q33 0 33 -31q0 -18 -15 -31.5t-34 -13.5q-16 0 -24.5 9t-8.5 22zM889 1399q0 20 14 32.5t35 12.5q33 0 33 -31q0 -18 -15 -31.5t-34 -13.5q-16 0 -24.5 9t-8.5 22z" />
<glyph unicode="&#xa9;" horiz-adv-x="1642" d="M145 569q0 158 51 295.5t136.5 234.5t196 166t230.5 102.5t240 33.5q112 0 211 -36t175 -103t120.5 -173t44.5 -237q0 -158 -51 -295.5t-136 -234.5t-195.5 -166t-230 -102.5t-239.5 -33.5q-112 0 -211 36t-176 103.5t-121.5 173.5t-44.5 236zM180 578 q-2 -125 38.5 -225.5t112 -165t164.5 -98.5t199 -34q94 0 189.5 23t186.5 66.5t170 111.5t139 153.5t96 198t38 238.5q2 125 -38.5 225.5t-112 164t-164.5 97t-199 33.5q-114 0 -228.5 -31.5t-220 -97.5t-187.5 -157.5t-131.5 -221.5t-51.5 -280zM504 643q0 97 40.5 178 t105 131t140.5 77.5t152 27.5q103 0 173.5 -52t80.5 -151l-35 -6q-19 174 -229 174q-68 0 -136.5 -25t-125.5 -71t-93 -119.5t-36 -161.5q0 -117 75 -181.5t185 -64.5q95 2 181 50.5t138 138.5l33 -13q-57 -104 -155.5 -158.5t-204.5 -54.5q-122 0 -205.5 74t-83.5 207z" />
<glyph unicode="&#xaa;" horiz-adv-x="1013" d="M174 481l8 35h633l-8 -35h-633zM233 918q16 75 70 128.5t121.5 77t140.5 23.5q168 -10 264 -68q13 56 21 101q45 227 -213 227q-127 0 -236 -59l-12 30q119 64 256 64t204 -64t42 -198l-88 -408q-6 -30 13 -42t67 -5v-33q-72 -10 -101 12.5t-18 69.5l12 60 q-57 -69 -149 -104.5t-187 -35.5q-109 0 -170 59t-37 165zM270 918q-19 -92 33.5 -140.5t145.5 -48.5q103 0 200.5 44.5t143.5 129.5q4 23 14 69.5t14 69.5q-108 67 -264 70q-101 0 -182.5 -49t-104.5 -145z" />
<glyph unicode="&#xab;" horiz-adv-x="870" d="M162 709l334 415l26 -16l-319 -399l143 -400l-27 -14zM473 709l334 415l27 -16l-320 -399l143 -400l-26 -14z" />
<glyph unicode="&#xac;" horiz-adv-x="1114" d="M211 696l8 35h764l-90 -424h-35l82 389h-729z" />
<glyph unicode="&#xad;" horiz-adv-x="923" d="M168 666l8 34h617l-9 -34h-616z" />
<glyph unicode="&#xae;" horiz-adv-x="1638" d="M145 575q0 157 50 293.5t134 233.5t193 167t228.5 104t238.5 34q113 0 212.5 -35.5t177 -102.5t122.5 -173t45 -238q0 -158 -50.5 -295.5t-135.5 -234t-194.5 -166t-229 -102.5t-238.5 -33q-89 0 -170.5 22t-151.5 67.5t-121.5 110t-80.5 154t-29 194.5zM178 584 q-2 -125 39.5 -226t114 -165t166 -98t198.5 -34q113 0 227 32t218.5 98t186 158t130.5 221.5t51 279.5q2 126 -39.5 227t-115 164.5t-167.5 97t-200 33.5q-113 0 -226 -32t-217.5 -98t-185 -158t-129.5 -221.5t-51 -278.5zM573 375l144 676h254q82 0 134 -47.5t52 -124.5 q0 -101 -68 -167.5t-171 -78.5l157 -256v-2h-43l-158 256h-208l-56 -256h-37zM672 666h217q96 0 162.5 57t66.5 149q0 66 -43 106t-112 40h-218z" />
<glyph unicode="&#xaf;" horiz-adv-x="1021" d="M502 1391l8 34h561l-8 -34h-561z" />
<glyph unicode="&#xb0;" horiz-adv-x="856" d="M238 1100q0 80 33.5 146.5t87.5 107.5t118.5 63.5t130.5 22.5q105 0 176.5 -60t71.5 -170q0 -80 -33 -147t-86.5 -109t-118 -65t-131.5 -23q-106 0 -177.5 61.5t-71.5 172.5zM272 1106q0 -96 65 -150.5t157 -54.5q80 0 153 33t123.5 104t50.5 166q0 96 -63 149.5 t-156 53.5q-59 0 -116.5 -20t-106 -56.5t-78 -95t-29.5 -129.5z" />
<glyph unicode="&#xb1;" horiz-adv-x="1062" d="M78 137l8 35h727l-8 -35h-727zM231 733l7 31h323l70 326h33l-70 -326h324l-7 -31h-323l-68 -319h-33l68 319h-324z" />
<glyph unicode="&#xb2;" horiz-adv-x="829" d="M188 819l2 8l465 404q58 48 88.5 108.5t28 112t-45 86.5t-120.5 35q-100 0 -157.5 -38t-86.5 -124h-30q61 193 278 193q112 0 162.5 -63t24.5 -156t-119 -175l-420 -362h469l-6 -29h-533z" />
<glyph unicode="&#xb3;" horiz-adv-x="780" d="M199 1014h30q-7 -86 44 -130t155 -44q132 0 216.5 67t84.5 180q0 94 -82.5 142t-185.5 16l4 19l340 297h-455l6 30h523l-2 -8l-351 -301q99 17 168.5 -41.5t69.5 -148.5q0 -126 -96.5 -205.5t-245.5 -79.5q-108 0 -169 54.5t-54 152.5z" />
<glyph unicode="&#xb4;" horiz-adv-x="620" d="M424 1141v4l260 274l31 -14v-4l-252 -260h-39z" />
<glyph unicode="&#xb6;" horiz-adv-x="1402" d="M144 862q23 198 147 351q148 182 374 213q43 6 87 6h618l-383 -1803h-35l375 1770h-551l-375 -1770h-39l156 736q-208 8 -309 164q-88 137 -65 333z" />
<glyph unicode="&#xb7;" horiz-adv-x="387" d="M182 725q0 20 13.5 32.5t33.5 12.5q33 0 33 -31q0 -18 -15 -31.5t-34 -13.5q-31 0 -31 31z" />
<glyph unicode="&#xb8;" horiz-adv-x="802" d="M150 -369l8 37q32 -44 99 -62t137.5 5t103.5 88q35 64 12.5 100.5t-70.5 50.5t-102 5l76 161h30l-61 -131q98 5 145 -49.5t0 -144.5q-37 -71 -112.5 -102.5t-150 -18t-115.5 60.5z" />
<glyph unicode="&#xb9;" horiz-adv-x="653" d="M182 819l6 31h181l151 713h-160l7 30h194l-158 -743h183l-6 -31h-398z" />
<glyph unicode="&#xba;" horiz-adv-x="1120" d="M178 479l8 35h721l-8 -35h-721zM262 1014q0 88 29 164.5t78 130t112 91.5t131.5 56.5t137.5 18.5q132 0 222.5 -82.5t90.5 -227.5q0 -108 -43 -197.5t-113 -145t-153.5 -85.5t-169.5 -30q-136 0 -229 81t-93 226zM297 1020q0 -133 84.5 -208t208.5 -75q78 0 155 28.5 t140.5 80t103 133.5t39.5 180q0 132 -82.5 207.5t-202.5 75.5q-63 0 -125.5 -16.5t-120 -52t-102.5 -84t-71.5 -118.5t-26.5 -151z" />
<glyph unicode="&#xbb;" horiz-adv-x="866" d="M92 309l311 400l-141 403l27 12l155 -415l-331 -414zM403 309l312 400l-142 403l27 12l156 -415l-332 -414z" />
<glyph unicode="&#xbc;" horiz-adv-x="1652" d="M119 676l6 31h180l152 712h-160l6 31h195l-158 -743h182l-6 -31h-397zM350 2l998 1432h41l-1000 -1432h-39zM899 188l4 19l592 571h27l-119 -557h92l-8 -33h-92l-39 -184h-33l39 184h-463zM958 221h412l49 232l58 262h-2z" />
<glyph unicode="&#xbd;" horiz-adv-x="1710" d="M119 676l6 31h180l152 712h-160l6 31h195l-158 -743h182l-6 -31h-397zM346 2l997 1432h41l-999 -1432h-39zM973 0l2 8l471 406q58 49 89 108.5t30 111t-47.5 86t-133.5 34.5q-98 0 -152.5 -39t-84.5 -127h-31q30 100 97 148t182 48q70 0 118.5 -23.5t67 -64t14.5 -89.5 t-37.5 -104.5t-91.5 -105.5q-261 -226 -417 -364h462l-6 -33h-532z" />
<glyph unicode="&#xbe;" horiz-adv-x="1705" d="M152 870h32q-1 -85 51 -130.5t146 -45.5q132 0 216.5 68.5t84.5 183.5q0 93 -79 142.5t-187 13.5l4 18l346 299h-463l6 29h522l-2 -8l-350 -301q101 17 169.5 -41.5t68.5 -147.5q0 -128 -96.5 -207t-245.5 -79q-108 0 -168.5 54t-54.5 152zM403 2l998 1432h41 l-1000 -1432h-39zM954 188l2 19l592 571h27l-119 -557h92l-6 -33h-92l-41 -184h-33l41 184h-463zM1012 221h411l50 232l57 262h-2z" />
<glyph unicode="&#xbf;" horiz-adv-x="952" d="M-70 -117q17 76 51.5 135t78.5 99.5t94.5 78.5t103 84.5t99.5 103.5t88.5 149t66.5 210h37q-25 -120 -67 -214.5t-89.5 -153.5t-100.5 -106.5t-104 -85.5t-94.5 -77.5t-77.5 -95.5t-49 -127q-31 -145 52 -227t231 -82q335 0 440 276h35q-59 -160 -186.5 -236.5 t-296.5 -76.5q-161 0 -254 94t-58 252zM543 956q0 17 13 29t30 12q28 0 28 -28q0 -17 -11.5 -27t-29.5 -10q-30 0 -30 24z" />
<glyph unicode="&#xc0;" d="M-70 0v2l979 1434h17l364 -1434v-2h-35l-125 473h-835l-326 -473h-39zM317 508h807l-219 858zM801 1837v4l37 23l141 -275v-4h-39z" />
<glyph unicode="&#xc1;" d="M-70 0v2l979 1434h17l364 -1434v-2h-35l-125 473h-835l-326 -473h-39zM317 508h807l-219 858zM907 1573v4l260 274l31 -14v-4l-252 -260h-39z" />
<glyph unicode="&#xc2;" d="M-70 0v2l979 1434h17l364 -1434v-2h-35l-125 473h-835l-326 -473h-39zM317 508h807l-219 858zM651 1554l2 7l326 237h37l223 -242v-2h-47l-199 215l-293 -215h-49z" />
<glyph unicode="&#xc3;" d="M-70 0v2l979 1434h17l364 -1434v-2h-35l-125 473h-835l-326 -473h-39zM317 508h807l-219 858zM690 1608q43 49 90 74t98.5 20.5t98.5 -43.5q115 -104 248 41l20 -17q-152 -169 -284 -53q-119 101 -250 -39z" />
<glyph unicode="&#xc4;" d="M-70 0v2l979 1434h17l364 -1434v-2h-35l-125 473h-835l-326 -473h-39zM317 508h807l-219 858zM717 1597q0 20 14 32.5t35 12.5q33 0 33 -30q0 -18 -15 -31.5t-34 -13.5q-33 0 -33 30zM1104 1597q0 20 14 32.5t35 12.5q33 0 33 -30q0 -18 -15 -31.5t-34 -13.5 q-33 0 -33 30z" />
<glyph unicode="&#xc5;" d="M-70 0v2l977 1430q-73 2 -121.5 42.5t-48.5 114.5t40.5 129.5t99 81t122.5 25.5q73 0 122.5 -43t49.5 -119q0 -105 -73.5 -165.5t-169.5 -65.5l362 -1430v-2h-37l-125 473h-835l-326 -473h-37zM315 508h807l-219 858zM774 1595q0 -63 43 -97t107 -34q81 0 146 52.5 t65 140.5q0 63 -40.5 96t-101.5 35q-86 0 -152.5 -51t-66.5 -142z" />
<glyph unicode="&#xc6;" horiz-adv-x="1705" d="M-66 0v4l1094 1426h717l-6 -35h-662l-135 -635h635l-8 -37h-635l-146 -688h666l-8 -35h-703l101 475h-508l-363 -475h-39zM362 508h490l186 876z" />
<glyph unicode="&#xc7;" horiz-adv-x="1562" d="M131 571q0 119 31.5 233t88 211.5t138.5 179.5t180 139t215.5 88t241.5 30q199 0 342.5 -102.5t187.5 -282.5h-38q-46 169 -178.5 257.5t-323.5 90.5q-172 2 -329 -64.5t-269.5 -179.5t-179 -268.5t-66.5 -324.5q0 -248 144.5 -403t396.5 -155q199 0 379 98.5t294 276.5 h37q-106 -186 -296.5 -296t-393.5 -115l-57 -125q95 5 141.5 -53.5t3.5 -149.5q-34 -72 -110 -101t-152 -13t-117 63l9 37q23 -32 70 -50.5t97.5 -19t99 25t73.5 74.5q41 83 -16 126t-144 30l71 156q-174 0 -305 77t-198.5 209.5t-67.5 300.5z" />
<glyph unicode="&#xc8;" horiz-adv-x="1173" d="M90 0l305 1434h809l-8 -35h-774l-135 -641h747l-8 -33h-747l-146 -690h778l-8 -35h-813zM692 1833v4l37 23l141 -275v-4h-39z" />
<glyph unicode="&#xc9;" horiz-adv-x="1173" d="M90 0l305 1434h809l-8 -35h-774l-135 -641h747l-8 -33h-747l-146 -690h778l-8 -35h-813zM793 1577v4l260 274l30 -14v-4l-252 -260h-38z" />
<glyph unicode="&#xca;" horiz-adv-x="1173" d="M90 0l305 1434h809l-8 -35h-774l-135 -641h747l-8 -33h-747l-146 -690h778l-8 -35h-813zM555 1589l2 6l311 234h35l213 -238v-2h-45l-190 211l-279 -211h-47z" />
<glyph unicode="&#xcb;" horiz-adv-x="1173" d="M90 0l305 1434h809l-8 -35h-774l-135 -641h747l-8 -33h-747l-146 -690h778l-8 -35h-813zM608 1638q0 20 14 32.5t35 12.5q33 0 33 -30q0 -18 -15 -31.5t-34 -13.5q-33 0 -33 30zM995 1638q0 20 14 32.5t35 12.5q33 0 33 -30q0 -18 -15 -31.5t-34 -13.5q-33 0 -33 30z" />
<glyph unicode="&#xcc;" horiz-adv-x="724" d="M-74 0l6 33h293l293 1370h-274l6 31h586l-7 -31h-274l-293 -1370h293l-6 -33h-623zM424 1823v4l37 22l141 -274v-4h-39z" />
<glyph unicode="&#xcd;" horiz-adv-x="724" d="M-74 0l6 33h293l293 1370h-274l6 31h586l-7 -31h-274l-293 -1370h293l-6 -33h-623zM539 1575v4l260 274l30 -14v-4l-251 -260h-39z" />
<glyph unicode="&#xce;" horiz-adv-x="724" d="M-74 0l6 33h293l293 1370h-274l6 31h586l-7 -31h-274l-293 -1370h293l-6 -33h-623zM291 1561v6l313 231h35l213 -235v-2h-45l-191 208l-280 -208h-45z" />
<glyph unicode="&#xcf;" horiz-adv-x="724" d="M-74 0l6 33h293l293 1370h-274l6 31h586l-7 -31h-274l-293 -1370h293l-6 -33h-623zM356 1647q0 20 14.5 32.5t35.5 12.5q32 0 32 -31q0 -18 -15 -31.5t-34 -13.5q-16 0 -24.5 9t-8.5 22zM743 1647q0 20 14.5 32.5t35.5 12.5q32 0 32 -31q0 -18 -15 -31.5t-34 -13.5 q-16 0 -24.5 9t-8.5 22z" />
<glyph unicode="&#xd0;" horiz-adv-x="1515" d="M63 688l7 33h174l151 713h479q176 0 304.5 -76t193 -205t64.5 -295q0 -174 -64.5 -331t-177 -273.5t-275 -185t-348.5 -68.5h-479l146 688h-175zM135 35h440q135 0 261.5 41.5t227.5 117t177 176t117 225t41 257.5q0 241 -141 394t-390 153h-442l-145 -678h286l-6 -33 h-287z" />
<glyph unicode="&#xd1;" horiz-adv-x="1515" d="M90 0l305 1436h21l741 -1354l287 1354h37l-305 -1436h-17l-743 1360l-291 -1360h-35zM688 1626q43 49 90 74t98.5 20.5t98.5 -43.5q115 -104 248 41l20 -16q-152 -170 -285 -53q-118 101 -249 -39z" />
<glyph unicode="&#xd2;" horiz-adv-x="1689" d="M129 569q0 183 72.5 348t194 282t286.5 186t344 69q270 0 429 -163.5t159 -426.5q0 -183 -72 -347.5t-193.5 -282t-287.5 -186t-348 -68.5q-267 0 -425.5 163t-158.5 426zM166 575q0 -164 64.5 -290.5t189 -198.5t293.5 -72q174 0 333 65.5t276 177t186 268t69 331.5 q0 252 -146 406.5t-401 154.5q-172 0 -331 -65.5t-276 -177t-187 -268.5t-70 -331zM915 1870v4l37 22l142 -274v-4h-39z" />
<glyph unicode="&#xd3;" horiz-adv-x="1689" d="M129 569q0 183 72.5 348t194 282t286.5 186t344 69q270 0 429 -163.5t159 -426.5q0 -183 -72 -347.5t-193.5 -282t-287.5 -186t-348 -68.5q-267 0 -425.5 163t-158.5 426zM166 575q0 -164 64.5 -290.5t189 -198.5t293.5 -72q174 0 333 65.5t276 177t186 268t69 331.5 q0 252 -146 406.5t-401 154.5q-172 0 -331 -65.5t-276 -177t-187 -268.5t-70 -331zM1024 1608v4l260 274l31 -14v-4l-252 -260h-39z" />
<glyph unicode="&#xd4;" horiz-adv-x="1689" d="M129 569q0 183 72.5 348t194 282t286.5 186t344 69q270 0 429 -163.5t159 -426.5q0 -183 -72 -347.5t-193.5 -282t-287.5 -186t-348 -68.5q-267 0 -425.5 163t-158.5 426zM166 575q0 -164 64.5 -290.5t189 -198.5t293.5 -72q174 0 333 65.5t276 177t186 268t69 331.5 q0 252 -146 406.5t-401 154.5q-172 0 -331 -65.5t-276 -177t-187 -268.5t-70 -331zM766 1612l2 6l326 237h36l224 -241v-2h-47l-199 215l-293 -215h-49z" />
<glyph unicode="&#xd5;" horiz-adv-x="1689" d="M129 569q0 183 72.5 348t194 282t286.5 186t344 69q270 0 429 -163.5t159 -426.5q0 -183 -72 -347.5t-193.5 -282t-287.5 -186t-348 -68.5q-267 0 -425.5 163t-158.5 426zM166 575q0 -164 64.5 -290.5t189 -198.5t293.5 -72q174 0 333 65.5t276 177t186 268t69 331.5 q0 252 -146 406.5t-401 154.5q-172 0 -331 -65.5t-276 -177t-187 -268.5t-70 -331zM801 1669q43 49 90 74t98 20.5t98 -43.5q115 -104 248 41l21 -16q-152 -170 -285 -53q-119 101 -250 -39z" />
<glyph unicode="&#xd6;" horiz-adv-x="1689" d="M129 569q0 183 72.5 348t194 282t286.5 186t344 69q270 0 429 -163.5t159 -426.5q0 -183 -72 -347.5t-193.5 -282t-287.5 -186t-348 -68.5q-267 0 -425.5 163t-158.5 426zM166 575q0 -164 64.5 -290.5t189 -198.5t293.5 -72q174 0 333 65.5t276 177t186 268t69 331.5 q0 252 -146 406.5t-401 154.5q-172 0 -331 -65.5t-276 -177t-187 -268.5t-70 -331zM864 1704q0 20 14 32.5t35 12.5q33 0 33 -31q0 -18 -15 -31.5t-34 -13.5q-16 0 -24.5 9t-8.5 22zM1251 1704q0 20 14 32.5t35 12.5q33 0 33 -31q0 -18 -15 -31.5t-34 -13.5q-16 0 -24.5 9 t-8.5 22z" />
<glyph unicode="&#xd7;" horiz-adv-x="856" d="M135 469l293 242l-190 245l24 21l193 -244l299 246l18 -23l-299 -247l189 -240l-25 -23l-191 242l-292 -242z" />
<glyph unicode="&#xd8;" horiz-adv-x="1685" d="M129 565q0 183 72 348t193 282t286 186t344 69q202 0 348 -92l123 160h41v-2l-139 -177q100 -69 156.5 -191.5t56.5 -283.5q0 -183 -72.5 -348t-194 -282t-286.5 -185.5t-344 -68.5q-195 0 -338 88l-127 -158h-43v2l143 174q-102 69 -160.5 193t-58.5 286zM164 569 q0 -152 55.5 -269t151.5 -185l975 1212q-147 84 -330 84q-172 0 -329 -65t-272 -176.5t-183 -268.5t-68 -332zM399 98q137 -84 320 -84q172 0 329 65.5t272 177t183 268t68 331.5q0 153 -52.5 269.5t-146.5 183.5z" />
<glyph unicode="&#xd9;" horiz-adv-x="1447" d="M180 496l199 938h37l-199 -938q-49 -222 58 -350t331 -128q223 0 382 127.5t208 350.5l199 938h32l-196 -938q-51 -242 -216 -378t-415 -136q-240 0 -354.5 138.5t-65.5 375.5zM782 1839v4l37 23l142 -275v-4h-39z" />
<glyph unicode="&#xda;" horiz-adv-x="1447" d="M180 496l199 938h37l-199 -938q-49 -222 58 -350t331 -128q223 0 382 127.5t208 350.5l199 938h32l-196 -938q-51 -242 -216 -378t-415 -136q-240 0 -354.5 138.5t-65.5 375.5zM879 1593v4l260 275l30 -14v-5l-251 -260h-39z" />
<glyph unicode="&#xdb;" horiz-adv-x="1447" d="M180 496l199 938h37l-199 -938q-49 -222 58 -350t331 -128q223 0 382 127.5t208 350.5l199 938h32l-196 -938q-51 -242 -216 -378t-415 -136q-240 0 -354.5 138.5t-65.5 375.5zM647 1614l2 6l326 238h37l223 -242v-2h-47l-199 215l-293 -215h-49z" />
<glyph unicode="&#xdc;" horiz-adv-x="1447" d="M180 496l199 938h37l-199 -938q-49 -222 58 -350t331 -128q223 0 382 127.5t208 350.5l199 938h32l-196 -938q-51 -242 -216 -378t-415 -136q-240 0 -354.5 138.5t-65.5 375.5zM729 1708q0 20 14 32.5t35 12.5q33 0 33 -31q0 -18 -15 -31.5t-34 -13.5q-16 0 -24.5 9 t-8.5 22zM1116 1708q0 20 14 32.5t35 12.5q33 0 33 -31q0 -18 -15 -31.5t-34 -13.5q-16 0 -24.5 9t-8.5 22z" />
<glyph unicode="&#xdd;" horiz-adv-x="1269" d="M244 1432v2h39l352 -791l688 791h41v-4l-717 -828l-129 -602h-37l129 602zM750 1608v4l260 274l30 -14v-4l-252 -260h-38z" />
<glyph unicode="&#xde;" horiz-adv-x="1331" d="M90 0l305 1434h35l-53 -248h500q211 0 322.5 -126t78.5 -335q-24 -142 -113 -248.5t-215 -159.5t-270 -53h-500l-55 -264h-35zM188 297h500q106 0 206.5 36.5t179 100t126 159t47.5 204.5q0 163 -94.5 259.5t-282.5 96.5h-499z" />
<glyph unicode="&#xdf;" horiz-adv-x="1146" d="M47 2l221 1036q24 113 72.5 195.5t107 127.5t135 68t145 26t148.5 -8t134.5 -25t113.5 -33l-8 -35l-532 -525q86 22 165 2.5t139 -65.5t96 -120t36 -161q0 -190 -90 -318t-245 -173.5t-347 -1.5l8 37q109 -25 204.5 -22.5t174.5 38.5t136 95.5t88.5 147.5t31.5 195 q0 110 -58.5 194t-157.5 115.5t-228 -6.5l12 50l526 528q-78 27 -153 41.5t-156 17.5t-152 -18t-133 -63t-108 -119.5t-68 -184.5l-221 -1036h-37z" />
<glyph unicode="&#xe0;" horiz-adv-x="1200" d="M72.5 386q1.5 61 15.5 122q54 232 227 365t416 133q179 0 346 -95l-151 -716q-17 -91 -14 -117q8 -55 85 -51q15 1 33 4l-4 -33q-29 -4 -51.5 -4t-39 3t-28 11.5t-19 17.5t-10.5 24.5t-4 29t1.5 34.5t5.5 38.5t8 42.5l18 81q-73 -130 -203.5 -209t-271.5 -79 q-76 0 -138.5 22t-103.5 60t-68.5 88t-39 108.5t-10 119.5zM112 357.5q0 -70.5 23 -131t61.5 -105.5t101 -70.5t142.5 -25.5q194 0 331.5 131.5t182.5 345.5l82 385q-147 84 -311 84q-142 0 -267 -56t-213 -163t-118 -248q-15 -76 -15 -146.5zM680 1446v2l33 22l131 -253v-3 h-37z" />
<glyph unicode="&#xe1;" horiz-adv-x="1200" d="M72.5 386q1.5 61 15.5 122q54 232 227 365t416 133q179 0 346 -95l-151 -716q-17 -91 -14 -117q8 -55 85 -51q15 1 33 4l-4 -33q-29 -4 -51.5 -4t-39 3t-28 11.5t-19 17.5t-10.5 24.5t-4 29t1.5 34.5t5.5 38.5t8 42.5l18 81q-73 -130 -203.5 -209t-271.5 -79 q-76 0 -138.5 22t-103.5 60t-68.5 88t-39 108.5t-10 119.5zM112 357.5q0 -70.5 23 -131t61.5 -105.5t101 -70.5t142.5 -25.5q194 0 331.5 131.5t182.5 345.5l82 385q-147 84 -311 84q-142 0 -267 -56t-213 -163t-118 -248q-15 -76 -15 -146.5zM733 1198v4l244 258l31 -14v-4 l-238 -244h-37z" />
<glyph unicode="&#xe2;" horiz-adv-x="1200" d="M72.5 386q1.5 61 15.5 122q54 232 227 365t416 133q179 0 346 -95l-151 -716q-17 -91 -14 -117q8 -55 85 -51q15 1 33 4l-4 -33q-29 -4 -51.5 -4t-39 3t-28 11.5t-19 17.5t-10.5 24.5t-4 29t1.5 34.5t5.5 38.5t8 42.5l18 81q-73 -130 -203.5 -209t-271.5 -79 q-76 0 -138.5 22t-103.5 60t-68.5 88t-39 108.5t-10 119.5zM112 357.5q0 -70.5 23 -131t61.5 -105.5t101 -70.5t142.5 -25.5q194 0 331.5 131.5t182.5 345.5l82 385q-147 84 -311 84q-142 0 -267 -56t-213 -163t-118 -248q-15 -76 -15 -146.5zM489 1206l3 6l288 228h33 l197 -232v-2h-43l-174 207l-258 -207h-46z" />
<glyph unicode="&#xe3;" horiz-adv-x="1200" d="M72.5 386q1.5 61 15.5 122q54 232 227 365t416 133q179 0 346 -95l-151 -716q-17 -91 -14 -117q8 -55 85 -51q15 1 33 4l-4 -33q-29 -4 -51.5 -4t-39 3t-28 11.5t-19 17.5t-10.5 24.5t-4 29t1.5 34.5t5.5 38.5t8 42.5l18 81q-73 -130 -203.5 -209t-271.5 -79 q-76 0 -138.5 22t-103.5 60t-68.5 88t-39 108.5t-10 119.5zM112 357.5q0 -70.5 23 -131t61.5 -105.5t101 -70.5t142.5 -25.5q194 0 331.5 131.5t182.5 345.5l82 385q-147 84 -311 84q-142 0 -267 -56t-213 -163t-118 -248q-15 -76 -15 -146.5zM524 1339q62 72 130.5 86 t138.5 -39q108 -96 231 39l18 -16q-147 -158 -264 -49q-115 95 -233 -35z" />
<glyph unicode="&#xe4;" horiz-adv-x="1200" d="M72.5 386q1.5 61 15.5 122q54 232 227 365t416 133q179 0 346 -95l-151 -716q-17 -91 -14 -117q8 -55 85 -51q15 1 33 4l-4 -33q-29 -4 -51.5 -4t-39 3t-28 11.5t-19 17.5t-10.5 24.5t-4 29t1.5 34.5t5.5 38.5t8 42.5l18 81q-73 -130 -203.5 -209t-271.5 -79 q-76 0 -138.5 22t-103.5 60t-68.5 88t-39 108.5t-10 119.5zM112 357.5q0 -70.5 23 -131t61.5 -105.5t101 -70.5t142.5 -25.5q194 0 331.5 131.5t182.5 345.5l82 385q-147 84 -311 84q-142 0 -267 -56t-213 -163t-118 -248q-15 -76 -15 -146.5zM571 1356q0 20 13.5 32.5 t33.5 12.5q35 0 35 -31q0 -18 -15 -31.5t-34 -13.5q-16 0 -24.5 9t-8.5 22zM958 1356q0 20 13.5 32.5t34.5 12.5q34 0 34 -31q0 -18 -15 -31.5t-34 -13.5q-16 0 -24.5 9t-8.5 22z" />
<glyph unicode="&#xe5;" horiz-adv-x="1200" d="M72.5 386q1.5 61 15.5 122q54 232 227 365t416 133q179 0 346 -95l-151 -716q-17 -91 -14 -117q8 -55 85 -51q15 1 33 4l-4 -33q-29 -4 -51.5 -4t-39 3t-28 11.5t-19 17.5t-10.5 24.5t-4 29t1.5 34.5t5.5 38.5t8 42.5l18 81q-73 -130 -203.5 -209t-271.5 -79 q-76 0 -138.5 22t-103.5 60t-68.5 88t-39 108.5t-10 119.5zM112 357.5q0 -70.5 23 -131t61.5 -105.5t101 -70.5t142.5 -25.5q194 0 331.5 131.5t182.5 345.5l82 385q-147 84 -311 84q-142 0 -267 -56t-213 -163t-118 -248q-15 -76 -15 -146.5zM594 1309q0 89 75 142.5 t167 53.5q67 0 112 -35t45 -98q0 -91 -72 -143.5t-165 -52.5q-68 0 -115 34.5t-47 98.5zM627 1315q0 -53 39 -82t96 -29q73 0 134.5 44t61.5 118q0 49 -39 79t-92 30q-77 0 -138.5 -43.5t-61.5 -116.5z" />
<glyph unicode="&#xe6;" horiz-adv-x="1810" d="M76 362q0 144 49.5 266t133 204t195 128t234.5 46q158 0 311 -95l-45 -211q80 145 208.5 226.5t291.5 81.5q66 0 125.5 -18.5t107 -57t63 -98t-6.5 -140.5q-21 -74 -68.5 -128t-109.5 -82t-123.5 -41t-124.5 -13q-114 0 -219 35t-164 106q-40 -120 -36 -221.5t42 -175.5 t118.5 -116t192.5 -42q146 -3 314 68l-11 -39q-155 -63 -309 -63q-164 4 -262 85.5t-115 223.5l-63 -291h-31l64 299q-64 -146 -185.5 -235t-255.5 -89q-145 0 -233 101t-88 286zM113 367q0 -170 77.5 -263.5t208.5 -93.5q87 0 168.5 42.5t142.5 112.5t104.5 156.5 t62.5 176.5l86 391q-134 84 -283 84q-114 0 -216.5 -43t-180.5 -119.5t-124 -192t-46 -251.5zM950 610q50 -73 156.5 -110t216.5 -37q56 0 111 11.5t110.5 36t98.5 72t63 111.5q19 73 4.5 125t-58.5 85.5t-97.5 49t-112.5 15.5q-167 0 -296.5 -92.5t-195.5 -266.5z" />
<glyph unicode="&#xe7;" horiz-adv-x="1163" d="M78 399q0 142 57 260t149.5 192t203.5 115.5t225 43.5q144 0 249.5 -67.5t129.5 -197.5h-35q-28 117 -121 174.5t-229 55.5q-83 -2 -166 -25.5t-160.5 -71t-137 -113t-95 -159t-35.5 -200.5q0 -177 110 -279t271 -102q140 0 267 66t210 196h41q-81 -143 -223.5 -221 t-288.5 -78l-51 -109q98 5 145 -49.5t0 -144.5q-37 -71 -113 -102.5t-150.5 -18t-115.5 60.5l8 37q33 -44 99 -62t136 5t105 88q35 64 12.5 100.5t-70.5 50t-102 4.5l66 142q-164 5 -277.5 115.5t-113.5 293.5z" />
<glyph unicode="&#xe8;" horiz-adv-x="1099" d="M69 350.5q-5 110.5 44 241.5q70 194 227 305t369 111q73 0 139.5 -19.5t118.5 -59t70.5 -100t-3.5 -141.5q-21 -73 -72.5 -126t-119.5 -79.5t-134.5 -38.5t-136.5 -12q-125 0 -242 35t-186 104q-43 -119 -36 -220t52 -174.5t135 -115t214 -41.5q163 -3 346 68l-10 -41 q-177 -63 -344 -63q-135 2 -232.5 48t-145.5 127t-53 191.5zM160 610q53 -65 178 -103t240 -38q59 0 120 12t122.5 36.5t108.5 70.5t64 106q21 73 4.5 125t-66.5 85.5t-110 49t-125 15.5q-185 2 -325 -91t-211 -268zM612 1442v4l35 20l133 -258v-4h-37z" />
<glyph unicode="&#xe9;" horiz-adv-x="1099" d="M69 350.5q-5 110.5 44 241.5q70 194 227 305t369 111q73 0 139.5 -19.5t118.5 -59t70.5 -100t-3.5 -141.5q-21 -73 -72.5 -126t-119.5 -79.5t-134.5 -38.5t-136.5 -12q-125 0 -242 35t-186 104q-43 -119 -36 -220t52 -174.5t135 -115t214 -41.5q163 -3 346 68l-10 -41 q-177 -63 -344 -63q-135 2 -232.5 48t-145.5 127t-53 191.5zM160 610q53 -65 178 -103t240 -38q59 0 120 12t122.5 36.5t108.5 70.5t64 106q21 73 4.5 125t-66.5 85.5t-110 49t-125 15.5q-185 2 -325 -91t-211 -268zM670 1204v4l241 256l29 -14v-4l-233 -242h-37z" />
<glyph unicode="&#xea;" horiz-adv-x="1099" d="M69 350.5q-5 110.5 44 241.5q70 194 227 305t369 111q73 0 139.5 -19.5t118.5 -59t70.5 -100t-3.5 -141.5q-21 -73 -72.5 -126t-119.5 -79.5t-134.5 -38.5t-136.5 -12q-125 0 -242 35t-186 104q-43 -119 -36 -220t52 -174.5t135 -115t214 -41.5q163 -3 346 68l-10 -41 q-177 -63 -344 -63q-135 2 -232.5 48t-145.5 127t-53 191.5zM160 610q53 -65 178 -103t240 -38q59 0 120 12t122.5 36.5t108.5 70.5t64 106q21 73 4.5 125t-66.5 85.5t-110 49t-125 15.5q-185 2 -325 -91t-211 -268zM463 1227l2 6l301 219h35l207 -223v-2h-45l-183 198 l-272 -198h-45z" />
<glyph unicode="&#xeb;" horiz-adv-x="1099" d="M69 350.5q-5 110.5 44 241.5q70 194 227 305t369 111q73 0 139.5 -19.5t118.5 -59t70.5 -100t-3.5 -141.5q-21 -73 -72.5 -126t-119.5 -79.5t-134.5 -38.5t-136.5 -12q-125 0 -242 35t-186 104q-43 -119 -36 -220t52 -174.5t135 -115t214 -41.5q163 -3 346 68l-10 -41 q-177 -63 -344 -63q-135 2 -232.5 48t-145.5 127t-53 191.5zM160 610q53 -65 178 -103t240 -38q59 0 120 12t122.5 36.5t108.5 70.5t64 106q21 73 4.5 125t-66.5 85.5t-110 49t-125 15.5q-185 2 -325 -91t-211 -268zM549 1368q0 18 13 29.5t32 11.5q31 0 31 -27 q0 -18 -13.5 -30.5t-31.5 -12.5q-31 0 -31 29zM907 1368q0 18 13 29.5t32 11.5q31 0 31 -27q0 -18 -13.5 -30.5t-31.5 -12.5q-31 0 -31 29z" />
<glyph unicode="&#xec;" horiz-adv-x="399" d="M57 0l209 983h35l-209 -983h-35zM201 1450v4l37 21l135 -265v-4h-37z" />
<glyph unicode="&#xed;" horiz-adv-x="399" d="M57 0l209 983h35l-209 -983h-35zM313 1214v5l250 264l29 -15v-4l-240 -250h-39z" />
<glyph unicode="&#xee;" horiz-adv-x="399" d="M57 0l209 983h35l-209 -983h-35zM70 1225l2 8l274 246h31l188 -252v-2h-39l-168 223l-247 -223h-41z" />
<glyph unicode="&#xef;" horiz-adv-x="399" d="M57 0l209 983h35l-209 -983h-35zM186 1337q0 20 13.5 32.5t33.5 12.5q35 0 35 -30q0 -18 -15 -31.5t-34 -13.5q-33 0 -33 30zM459 1337q0 20 13.5 32.5t33.5 12.5q35 0 35 -30q0 -18 -15 -31.5t-34 -13.5q-33 0 -33 30z" />
<glyph unicode="&#xf0;" horiz-adv-x="1234" d="M74 377q0 138 56 251.5t146.5 183.5t198.5 108t219 38q127 0 231 -60t150 -167q-18 126 -64 252t-112 221l-174 -106l-12 26l168 105q-89 119 -205 190l2 2h53q92 -64 178 -176l168 107l15 -27l-164 -102q87 -124 137.5 -286t50.5 -319q0 -125 -37.5 -231t-100 -179 t-144 -124.5t-169 -75.5t-176.5 -24q-114 0 -206 42.5t-150.5 133.5t-58.5 217zM109 385q0 -87 31 -158t84 -116t122.5 -69t147.5 -24q103 0 203.5 36t184 102t136.5 172t55 233q0 87 -30.5 157t-83.5 115t-122 69t-147 24q-82 0 -163.5 -22t-156 -67.5t-132 -108.5 t-92.5 -152t-37 -191z" />
<glyph unicode="&#xf1;" horiz-adv-x="1189" d="M72 0q33 157 93.5 439.5t84.5 398.5q18 82 -3 108.5t-108 14.5l2 32q104 13 133.5 -21.5t8.5 -133.5l-15 -70q70 114 186 177t244 63q180 0 266.5 -114t49.5 -294l-86 -403q-6 -26 -9.5 -40.5t-6.5 -35.5t-1.5 -32t4.5 -25t12.5 -20.5t23.5 -11.5t35.5 -4.5t49.5 5.5 l-6 -37q-82 -13 -118.5 7.5t-35.5 70t17 123.5l86 403q36 170 -45 270.5t-244 100.5q-168 0 -295 -105.5t-164 -273.5l-125 -592h-34zM455 1335q63 72 130.5 87.5t139.5 -38.5q110 -99 236 39l18 -16q-42 -48 -84.5 -72.5t-91 -20.5t-92.5 44q-114 94 -236 -37z" />
<glyph unicode="&#xf2;" horiz-adv-x="1253" d="M78 395q0 116 38 216.5t101.5 171.5t147 121.5t174 75t182.5 24.5q114 0 207 -44.5t151 -138.5t58 -223q0 -116 -38 -217t-101.5 -171.5t-146.5 -121.5t-173.5 -75.5t-181.5 -24.5q-177 0 -297.5 107t-120.5 300zM113 401q0 -180 112.5 -279t278.5 -99q83 0 167 22.5 t161 70t137 113.5t95.5 159.5t35.5 201.5q0 178 -110.5 278.5t-274.5 100.5q-85 0 -169.5 -22.5t-163 -69.5t-138 -113t-95.5 -160t-36 -203zM657 1464v4l35 21l129 -254v-2h-35z" />
<glyph unicode="&#xf3;" horiz-adv-x="1253" d="M78 395q0 116 38 216.5t101.5 171.5t147 121.5t174 75t182.5 24.5q114 0 207 -44.5t151 -138.5t58 -223q0 -116 -38 -217t-101.5 -171.5t-146.5 -121.5t-173.5 -75.5t-181.5 -24.5q-177 0 -297.5 107t-120.5 300zM113 401q0 -180 112.5 -279t278.5 -99q83 0 167 22.5 t161 70t137 113.5t95.5 159.5t35.5 201.5q0 178 -110.5 278.5t-274.5 100.5q-85 0 -169.5 -22.5t-163 -69.5t-138 -113t-95.5 -160t-36 -203zM723 1223v4l242 256l28 -15v-4l-233 -241h-37z" />
<glyph unicode="&#xf4;" horiz-adv-x="1253" d="M78 395q0 116 38 216.5t101.5 171.5t147 121.5t174 75t182.5 24.5q114 0 207 -44.5t151 -138.5t58 -223q0 -116 -38 -217t-101.5 -171.5t-146.5 -121.5t-173.5 -75.5t-181.5 -24.5q-177 0 -297.5 107t-120.5 300zM113 401q0 -180 112.5 -279t278.5 -99q83 0 167 22.5 t161 70t137 113.5t95.5 159.5t35.5 201.5q0 178 -110.5 278.5t-274.5 100.5q-85 0 -169.5 -22.5t-163 -69.5t-138 -113t-95.5 -160t-36 -203zM502 1243v6l299 228h33l204 -232v-2h-43l-182 207l-268 -207h-43z" />
<glyph unicode="&#xf5;" horiz-adv-x="1253" d="M78 395q0 116 38 216.5t101.5 171.5t147 121.5t174 75t182.5 24.5q114 0 207 -44.5t151 -138.5t58 -223q0 -116 -38 -217t-101.5 -171.5t-146.5 -121.5t-173.5 -75.5t-181.5 -24.5q-177 0 -297.5 107t-120.5 300zM113 401q0 -180 112.5 -279t278.5 -99q83 0 167 22.5 t161 70t137 113.5t95.5 159.5t35.5 201.5q0 178 -110.5 278.5t-274.5 100.5q-85 0 -169.5 -22.5t-163 -69.5t-138 -113t-95.5 -160t-36 -203zM541 1360q63 72 130.5 87.5t139.5 -38.5q110 -99 236 39l18 -16q-42 -48 -84.5 -72.5t-91 -21t-92.5 43.5q-114 95 -236 -36z" />
<glyph unicode="&#xf6;" horiz-adv-x="1253" d="M78 395q0 116 38 216.5t101.5 171.5t147 121.5t174 75t182.5 24.5q114 0 207 -44.5t151 -138.5t58 -223q0 -116 -38 -217t-101.5 -171.5t-146.5 -121.5t-173.5 -75.5t-181.5 -24.5q-177 0 -297.5 107t-120.5 300zM113 401q0 -180 112.5 -279t278.5 -99q83 0 167 22.5 t161 70t137 113.5t95.5 159.5t35.5 201.5q0 178 -110.5 278.5t-274.5 100.5q-85 0 -169.5 -22.5t-163 -69.5t-138 -113t-95.5 -160t-36 -203zM610 1368q0 18 13 29.5t32 11.5q31 0 31 -27q0 -18 -13.5 -30.5t-31.5 -12.5q-31 0 -31 29zM969 1368q0 18 13 29.5t32 11.5 q30 0 30 -27q0 -18 -13.5 -30.5t-31.5 -12.5q-30 0 -30 29z" />
<glyph unicode="&#xf7;" horiz-adv-x="1048" d="M188 717l9 35h704l-8 -35h-705zM449 453q0 17 11 26.5t29 9.5q29 0 29 -26q0 -17 -12.5 -27t-30.5 -10q-26 0 -26 27zM565 1004q0 17 11.5 26.5t29.5 9.5q29 0 29 -26q0 -17 -12.5 -27t-30.5 -10q-27 0 -27 27z" />
<glyph unicode="&#xf8;" horiz-adv-x="1255" d="M80 395q0 124 42 230t111 177.5t158 121t183.5 68t188 10.5t169.5 -44l115 156h40l-122 -170q81 -49 127.5 -138t46.5 -208q0 -121 -40 -225t-107 -175.5t-154 -122t-179.5 -71t-185 -15.5t-170.5 38l-102 -142h-39l110 156q-89 46 -140.5 137t-51.5 217zM115 403 q0 -118 48.5 -203t131.5 -128l614 854q-71 34 -158 41.5t-174.5 -9.5t-171 -63t-148 -112.5t-103.5 -165.5t-39 -214zM326 59q72 -29 158.5 -33t172.5 15t166.5 65.5t142 112.5t99 163t37.5 210q0 110 -43 192.5t-117 126.5z" />
<glyph unicode="&#xf9;" horiz-adv-x="1159" d="M121.5 184.5q-20.5 92.5 1.5 214.5l125 588h35l-125 -588q-38 -169 30 -275t228 -106q172 0 301 105.5t166 277.5l125 586h34l-161 -760q-17 -79 -20.5 -121.5t7 -66t37.5 -24.5t70 3l-2 -32q-32 -4 -55.5 -4.5t-40.5 4.5t-28 12.5t-16.5 24t-7 33.5t2 46.5t8.5 57 t14 71.5q-73 -125 -186.5 -187t-253.5 -62q-118 0 -193 55t-95.5 147.5zM580 1462v4l34 21l134 -260v-4h-37z" />
<glyph unicode="&#xfa;" horiz-adv-x="1159" d="M121.5 184.5q-20.5 92.5 1.5 214.5l125 588h35l-125 -588q-38 -169 30 -275t228 -106q172 0 301 105.5t166 277.5l125 586h34l-161 -760q-17 -79 -20.5 -121.5t7 -66t37.5 -24.5t70 3l-2 -32q-32 -4 -55.5 -4.5t-40.5 4.5t-28 12.5t-16.5 24t-7 33.5t2 46.5t8.5 57 t14 71.5q-73 -125 -186.5 -187t-253.5 -62q-118 0 -193 55t-95.5 147.5zM657 1219v4l244 258l31 -15v-4l-238 -243h-37z" />
<glyph unicode="&#xfb;" horiz-adv-x="1159" d="M121.5 184.5q-20.5 92.5 1.5 214.5l125 588h35l-125 -588q-38 -169 30 -275t228 -106q172 0 301 105.5t166 277.5l125 586h34l-161 -760q-17 -79 -20.5 -121.5t7 -66t37.5 -24.5t70 3l-2 -32q-32 -4 -55.5 -4.5t-40.5 4.5t-28 12.5t-16.5 24t-7 33.5t2 46.5t8.5 57 t14 71.5q-73 -125 -186.5 -187t-253.5 -62q-118 0 -193 55t-95.5 147.5zM430 1243l2 6l311 226h35l213 -230v-2h-45l-190 205l-279 -205h-47z" />
<glyph unicode="&#xfc;" horiz-adv-x="1159" d="M121.5 184.5q-20.5 92.5 1.5 214.5l125 588h35l-125 -588q-38 -169 30 -275t228 -106q172 0 301 105.5t166 277.5l125 586h34l-161 -760q-17 -79 -20.5 -121.5t7 -66t37.5 -24.5t70 3l-2 -32q-32 -4 -55.5 -4.5t-40.5 4.5t-28 12.5t-16.5 24t-7 33.5t2 46.5t8.5 57 t14 71.5q-73 -125 -186.5 -187t-253.5 -62q-118 0 -193 55t-95.5 147.5zM494 1358q0 20 14 32.5t35 12.5q30 0 30 -31q0 -19 -14 -32t-33 -13q-32 0 -32 31zM872 1358q0 20 13.5 32.5t34.5 12.5q32 0 32 -31q0 -18 -15 -31.5t-34 -13.5q-31 0 -31 31z" />
<glyph unicode="&#xfd;" horiz-adv-x="1241" d="M20 -428l19 31q82 -55 183 -81.5t206 -16.5t197.5 53.5t164 137.5t99.5 226l80 369q-76 -146 -199 -232t-272 -86q-130 0 -215 51.5t-119.5 160t4.5 276.5l70 327q11 62 13 103.5t-28.5 57.5t-103.5 3l6 33q86 16 126 -5t39 -71t-16 -121l-69 -327q-52 -232 31 -341.5 t268 -109.5q98 0 186.5 42t152 111.5t107 155.5t62.5 179l104 489h35l-227 -1065q-22 -104 -67.5 -186.5t-106 -135.5t-133 -86.5t-150.5 -43t-156.5 -2t-152.5 34.5t-138 69zM696 1186v4l260 274l31 -14v-4l-252 -260h-39z" />
<glyph unicode="&#xfe;" horiz-adv-x="1191" d="M-57 -506l419 1979h35l-129 -611q94 66 192.5 102.5t187 42t167.5 -18t136 -72.5t90.5 -128t33.5 -178q0 -138 -48.5 -255t-127.5 -194t-181.5 -122t-207.5 -49.5t-210 33.5t-185 118l-138 -647h-34zM125 186q74 -80 173 -121.5t199 -41.5t198 40t173 111.5t121.5 184 t46.5 247.5q0 96 -32.5 170.5t-88.5 119t-132.5 63.5t-161.5 10t-179.5 -47.5t-183.5 -104.5z" />
<glyph unicode="&#xff;" horiz-adv-x="1241" d="M20 -428l19 31q82 -55 183 -81.5t206 -16.5t197.5 53.5t164 137.5t99.5 226l80 369q-76 -146 -199 -232t-272 -86q-130 0 -215 51.5t-119.5 160t4.5 276.5l70 327q11 62 13 103.5t-28.5 57.5t-103.5 3l6 33q86 16 126 -5t39 -71t-16 -121l-69 -327q-52 -232 31 -341.5 t268 -109.5q98 0 186.5 42t152 111.5t107 155.5t62.5 179l104 489h35l-227 -1065q-22 -104 -67.5 -186.5t-106 -135.5t-133 -86.5t-150.5 -43t-156.5 -2t-152.5 34.5t-138 69zM528 1366q0 20 14.5 32.5t35.5 12.5q32 0 32 -31q0 -18 -15 -31.5t-34 -13.5q-16 0 -24.5 9 t-8.5 22zM915 1366q0 20 14.5 32.5t35.5 12.5q32 0 32 -31q0 -18 -15 -31.5t-34 -13.5q-16 0 -24.5 9t-8.5 22z" />
<glyph unicode="&#x152;" horiz-adv-x="1918" d="M133 555q0 154 42.5 292.5t123 249t191.5 191.5t255 124.5t306 43.5q114 0 231 -24h676l-8 -37h-662l-133 -633h635l-10 -39h-635l-146 -686h666l-6 -35h-688q-152 -31 -246 -31q-281 0 -436.5 160t-155.5 424zM168 561q0 -254 147.5 -403.5t417.5 -149.5q110 0 230 27 l290 1364q-103 20 -211 20q-194 0 -358 -65t-277 -178.5t-176 -272t-63 -342.5z" />
<glyph unicode="&#x153;" horiz-adv-x="2043" d="M78 391q0 115 36 215.5t96 172t138.5 123.5t165 77t172.5 25q167 0 276.5 -94t116.5 -269q79 173 229.5 270t346.5 97q72 0 138 -19.5t118 -59t70.5 -100t-5.5 -141.5q-21 -73 -71.5 -126t-118 -80.5t-134 -39.5t-136.5 -12q-123 0 -241 37.5t-188 107.5 q-43 -120 -35.5 -221.5t53 -175.5t136 -116t213.5 -42q160 -3 346 68l-12 -41q-171 -63 -342 -63q-202 4 -312.5 100t-115.5 264q-78 -171 -232 -264.5t-317 -93.5q-108 0 -195 44t-141.5 137t-54.5 220zM113 399q0 -178 103 -276t259 -98q80 0 160.5 25t153.5 76 t129.5 120.5t90 166t33.5 205.5q0 89 -29 158t-79.5 110.5t-115 62t-140.5 20.5q-100 0 -198.5 -38t-181 -107t-134 -180.5t-51.5 -244.5zM1104 610q58 -69 178.5 -107t241.5 -38q62 0 121.5 11t120.5 35.5t107 71.5t66 111q21 73 4.5 125t-66.5 85.5t-110 49t-125 15.5 q-185 2 -326 -91t-212 -268z" />
<glyph unicode="&#x178;" horiz-adv-x="1269" d="M244 1432v2h39l352 -791l688 791h41v-4l-717 -828l-129 -602h-37l129 602zM612 1618q0 20 14.5 32.5t35.5 12.5q32 0 32 -31q0 -18 -15 -31.5t-34 -13.5q-16 0 -24.5 9t-8.5 22zM999 1618q0 20 14.5 32.5t35.5 12.5q32 0 32 -31q0 -18 -15 -31.5t-34 -13.5q-16 0 -24.5 9 t-8.5 22z" />
<glyph unicode="&#x2c6;" horiz-adv-x="1011" d="M446 1198l3 6l325 238h37l223 -242v-2h-47l-199 215l-292 -215h-50z" />
<glyph unicode="&#x2dc;" horiz-adv-x="860" d="M438 1350q43 49 90 74t98.5 20.5t98.5 -43.5q115 -104 248 41l20 -17q-152 -169 -284 -53q-119 101 -250 -39z" />
<glyph unicode="&#x2000;" horiz-adv-x="948" />
<glyph unicode="&#x2001;" horiz-adv-x="1896" />
<glyph unicode="&#x2002;" horiz-adv-x="948" />
<glyph unicode="&#x2003;" horiz-adv-x="1896" />
<glyph unicode="&#x2004;" horiz-adv-x="632" />
<glyph unicode="&#x2005;" horiz-adv-x="474" />
<glyph unicode="&#x2006;" horiz-adv-x="316" />
<glyph unicode="&#x2007;" horiz-adv-x="316" />
<glyph unicode="&#x2008;" horiz-adv-x="237" />
<glyph unicode="&#x2009;" horiz-adv-x="379" />
<glyph unicode="&#x200a;" horiz-adv-x="105" />
<glyph unicode="&#x2010;" horiz-adv-x="923" d="M168 666l8 34h617l-9 -34h-616z" />
<glyph unicode="&#x2011;" horiz-adv-x="923" d="M168 666l8 34h617l-9 -34h-616z" />
<glyph unicode="&#x2012;" horiz-adv-x="923" d="M168 666l8 34h617l-9 -34h-616z" />
<glyph unicode="&#x2013;" horiz-adv-x="1112" d="M168 666l8 34h805l-8 -34h-805z" />
<glyph unicode="&#x2014;" horiz-adv-x="1292" d="M168 666l8 34h985l-8 -34h-985z" />
<glyph unicode="&#x2018;" horiz-adv-x="405" d="M311 1278q0 6 4 18l72 138h35l-62 -119q21 -6 21 -25q0 -18 -11.5 -28.5t-29.5 -10.5q-29 0 -29 27z" />
<glyph unicode="&#x2019;" horiz-adv-x="407" d="M307 1249l60 119q-19 10 -19 25q0 18 11.5 28.5t29.5 10.5q29 0 29 -27q0 -5 -0.5 -8t-1.5 -4.5l-2 -3t-2 -3.5l-72 -137h-33z" />
<glyph unicode="&#x201a;" horiz-adv-x="339" d="M-27 -147l68 131q-18 6 -18 24q0 39 38 39q29 0 29 -27q0 -6 -4 -18l-78 -149h-35z" />
<glyph unicode="&#x201c;" horiz-adv-x="628" d="M315 1274q0 8 3.5 12.5t3.5 5.5l71 138h33l-59 -119q18 -9 18 -25q0 -18 -11.5 -28.5t-29.5 -10.5q-29 0 -29 27zM528 1274q0 8 3.5 12.5t3.5 5.5l71 138h33l-59 -119q18 -9 18 -25q0 -18 -11.5 -28.5t-29.5 -10.5q-29 0 -29 27z" />
<glyph unicode="&#x201d;" horiz-adv-x="620" d="M307 1249l60 119q-19 10 -19 25q0 18 11.5 28.5t29.5 10.5q29 0 29 -27q0 -5 -0.5 -8t-1.5 -4.5l-2 -3t-2 -3.5l-72 -137h-33zM520 1249l60 119q-19 10 -19 25q0 18 11.5 28.5t29.5 10.5q29 0 29 -27q0 -5 -0.5 -8t-1.5 -4.5l-2 -3t-2 -3.5l-72 -137h-33z" />
<glyph unicode="&#x201e;" horiz-adv-x="636" d="M-25 -139l66 123q-18 6 -18 24q0 39 38 39q29 0 29 -27q0 -6 -4 -18l-76 -141h-35zM272 -139l66 123q-19 6 -19 24t10.5 28.5t28.5 10.5q29 0 29 -27q0 -6 -4 -18l-76 -141h-35z" />
<glyph unicode="&#x2022;" horiz-adv-x="657" d="M233 713q0 58 44.5 95.5t103.5 37.5q43 0 71.5 -25.5t28.5 -70.5q0 -53 -47 -95.5t-102 -42.5q-43 0 -71 29.5t-28 71.5z" />
<glyph unicode="&#x2026;" horiz-adv-x="1077" d="M39 25q0 20 13.5 32.5t33.5 12.5q35 0 35 -31q0 -18 -15 -31.5t-34 -13.5q-16 0 -24.5 9t-8.5 22zM377 25q0 20 13.5 32.5t33.5 12.5q35 0 35 -31q0 -18 -15 -31.5t-34 -13.5q-16 0 -24.5 9t-8.5 22zM725 25q0 20 13.5 32.5t33.5 12.5q35 0 35 -31q0 -18 -15 -31.5 t-34 -13.5q-16 0 -24.5 9t-8.5 22z" />
<glyph unicode="&#x202f;" horiz-adv-x="379" />
<glyph unicode="&#x2039;" horiz-adv-x="557" d="M162 709l334 415l20 -12l-313 -403l143 -400l-27 -14z" />
<glyph unicode="&#x203a;" horiz-adv-x="555" d="M92 309l311 400l-141 403l27 12l155 -415l-331 -414z" />
<glyph unicode="&#x205f;" horiz-adv-x="474" />
<glyph unicode="&#x20ac;" horiz-adv-x="1384" d="M94 528l6 33h174q10 165 66 309h-174l8 33h180q107 247 328 398t487 151q104 0 213 -37l-22 -35q-90 35 -199 35q-252 0 -457.5 -140t-310.5 -372h649l-20 -33h-645q-56 -144 -66 -309h543l-18 -33h-523q5 -229 152.5 -370.5t394.5 -141.5q136 0 273 52l4 -33 q-139 -53 -285 -53q-264 0 -418.5 150t-159.5 396h-180z" />
<glyph unicode="&#x2122;" horiz-adv-x="1525" d="M297 1405l6 31h504l-6 -31h-234l-114 -541h-35l114 541h-235zM807 864l121 572h26l197 -353l346 353h27l-121 -572h-37l107 498l-330 -332h-8l-185 332l-106 -498h-37z" />
<glyph unicode="&#x25fc;" horiz-adv-x="983" d="M0 0v983h983v-983h-983z" />
</font>
</defs>
</svg>
